#N canvas 883 417 756 916 12;
#X msg 124 186 MagiciansVision;
#X msg 137 261 NeueSpace;
#X obj 130 655 s udp-client;
#X msg 105 110 Destruction;
#X obj 130 579 symbol prepend;
#X msg 128 212 MeetMeAtShasta;
#X msg 112 135 Emperor;
#X obj 130 628 oscformat unity scene toggleArtwork;
#X msg 96 87 CandyLand;
#X msg 79 41 BastionPebble, f 14;
#X msg 144 309 Painting2001, f 14;
#X obj 140 603 s artworkId;
#X msg 89 64 BeginningChoice;
#X msg 119 161 Love;
#X msg 132 238 NecessaryStare;
#X msg 141 285 Nocturne;
#X msg 147 334 Prelude;
#X msg 149 360 SeeOfTeeth;
#X msg 153 385 SpaceDock;
#X msg 155 410 TheMiracle;
#X msg 158 435 Windows;
#X msg 159 461 World;
#X msg 452 211 MagiciansVision;
#X msg 465 286 NeueSpace;
#X msg 433 135 Destruction;
#X msg 456 237 MeetMeAtShasta;
#X msg 440 160 Emperor;
#X msg 424 112 CandyLand;
#X msg 407 66 BastionPebble, f 14;
#X msg 472 334 Painting2001, f 14;
#X msg 417 89 BeginningChoice;
#X msg 447 186 Love;
#X msg 460 263 NecessaryStare;
#X msg 469 310 Nocturne;
#X msg 475 359 Prelude;
#X msg 477 385 SeeOfTeeth;
#X msg 481 410 SpaceDock;
#X msg 483 435 TheMiracle;
#X msg 486 460 Windows;
#X msg 487 486 World;
#X obj 444 605 s artworkId;
#X obj 444 581 symbol prepend;
#X msg 161 490 JokerAndFool;
#X msg 489 513 JokerAndFool;
#X obj 667 56 bng 25 250 50 0 clearScene empty Clear\ Scene 35 12 0 12 #c6feff #000000 #000000;
#X msg 172 529 ShastaPoints;
#X msg 304 529 ShastaPoints;
#X connect 0 0 4 0;
#X connect 1 0 4 0;
#X connect 3 0 4 0;
#X connect 4 0 7 0;
#X connect 4 0 11 0;
#X connect 5 0 4 0;
#X connect 6 0 4 0;
#X connect 7 0 2 0;
#X connect 8 0 4 0;
#X connect 9 0 4 0;
#X connect 10 0 4 0;
#X connect 12 0 4 0;
#X connect 13 0 4 0;
#X connect 14 0 4 0;
#X connect 15 0 4 0;
#X connect 16 0 4 0;
#X connect 17 0 4 0;
#X connect 18 0 4 0;
#X connect 19 0 4 0;
#X connect 20 0 4 0;
#X connect 21 0 4 0;
#X connect 22 0 41 0;
#X connect 23 0 41 0;
#X connect 24 0 41 0;
#X connect 25 0 41 0;
#X connect 26 0 41 0;
#X connect 27 0 41 0;
#X connect 28 0 41 0;
#X connect 29 0 41 0;
#X connect 30 0 41 0;
#X connect 31 0 41 0;
#X connect 32 0 41 0;
#X connect 33 0 41 0;
#X connect 34 0 41 0;
#X connect 35 0 41 0;
#X connect 36 0 41 0;
#X connect 37 0 41 0;
#X connect 38 0 41 0;
#X connect 39 0 41 0;
#X connect 41 0 40 0;
#X connect 42 0 4 0;
#X connect 43 0 41 0;
#X connect 45 0 4 0;
#X connect 46 0 41 0;
