#N canvas -39 -16 1080 1837 12;
#X msg 283 1358 192.168.1.205;
#X listbox 283 1333 20 0 0 0 - - - 0;
#X msg 282 1410 8000;
#X msg 283 1382 localhost;
#X obj 123 1337 r udp-client;
#X obj 32 80 cnv 19 230 210 empty empty Endpoint 20 12 0 12 #c6ffc7 #404040 0;
#X floatatom 48 117 5 0 0 0 - - - 0;
#X obj 48 236 oscformat;
#X obj 48 258 s udp-client;
#X obj 48 214 * 1;
#X floatatom 79 185 5 0 0 0 - - - 0;
#X obj 274 1291 midi/oxygen61-midi;
#X obj 31 302 cnv 19 230 210 empty empty Endpoint 20 12 0 12 #c6ffc7 #404040 0;
#X floatatom 47 366 5 0 0 0 - - - 0;
#X obj 47 458 oscformat;
#X obj 47 480 s udp-client;
#X obj 47 436 * 1;
#X floatatom 78 427 5 0 0 0 - - - 0;
#X obj 29 530 cnv 19 230 210 empty empty Endpoint 20 12 0 12 #c6ffc7 #404040 0;
#X floatatom 45 576 5 0 0 0 - - - 0;
#X obj 45 685 oscformat;
#X obj 45 707 s udp-client;
#X obj 45 663 * 1;
#X floatatom 76 634 5 0 0 0 - - - 0;
#X obj 123 1445 network/udp-client;
#X obj 840 905 cnv 19 230 210 empty empty Endpoint 20 12 0 12 #c6ffc7 #404040 0;
#X floatatom 847 939 5 0 0 0 - - - 0;
#X obj 847 1058 oscformat;
#X obj 847 1080 s udp-client;
#X obj 847 1036 * 1;
#X floatatom 878 1007 5 0 0 0 - - - 0;
#X obj 894 937 r mod;
#X obj 172 562 r artworkId;
#X obj 163 367 r artworkId;
#X obj 165 118 r artworkId;
#X obj 943 939 r artworkId;
#X obj 316 82 cnv 19 260 200 empty empty Endpoint 20 12 0 12 #ffc7c6 #404040 0;
#X obj 332 225 oscformat;
#X obj 332 247 s udp-client;
#X msg 340 196 set unity artwork \$1 midi note;
#X text 474 169 set artwork id;
#X obj 32 12 cnv 19 126 50 empty empty empty 20 12 0 12 #ff8300 #404040 0;
#X floatatom 40 29 5 0 0 1 Artwork\ ID artworkId - 0;
#N canvas 1716 174 792 776 note 0;
#X obj 116 111 notein;
#X floatatom 325 148 5 0 0 0 - - - 0;
#X floatatom 365 147 5 0 0 0 - - - 0;
#X obj 283 302 > 0;
#X obj 210 341 spigot;
#X obj 210 299 pack f f;
#X obj 269 235 / 127;
#X obj 399 630 outlet;
#X text 6 203 separate out pads;
#X obj 286 432 spigot;
#X obj 286 475 outlet;
#X obj 170 344 == 0;
#X obj 153 304 < 43;
#X obj 119 404 spigot;
#X obj 103 508 print pad;
#X msg 428 429 0;
#X msg 443 451 1;
#X msg 455 478 2;
#X msg 470 500 3;
#X msg 487 522 4;
#X msg 502 544 5;
#X msg 514 571 6;
#X msg 529 593 7;
#X obj 429 397 route 40 41 42 43 36 37 38 39;
#X connect 0 0 1 0;
#X connect 0 0 5 0;
#X connect 0 0 12 0;
#X connect 0 1 2 0;
#X connect 0 1 6 0;
#X connect 0 1 3 0;
#X connect 3 0 4 1;
#X connect 4 0 9 0;
#X connect 4 0 13 0;
#X connect 5 0 4 0;
#X connect 6 0 5 1;
#X connect 9 0 10 0;
#X connect 11 0 9 1;
#X connect 12 0 11 0;
#X connect 12 0 13 1;
#X connect 13 0 14 0;
#X connect 13 0 23 0;
#X connect 15 0 7 0;
#X connect 16 0 7 0;
#X connect 17 0 7 0;
#X connect 18 0 7 0;
#X connect 19 0 7 0;
#X connect 20 0 7 0;
#X connect 21 0 7 0;
#X connect 22 0 7 0;
#X connect 23 0 15 0;
#X connect 23 1 16 0;
#X connect 23 2 17 0;
#X connect 23 3 18 0;
#X connect 23 4 19 0;
#X connect 23 5 20 0;
#X connect 23 6 21 0;
#X connect 23 7 22 0;
#X restore 332 113 pd note;
#X obj 314 299 cnv 19 250 160 empty empty Artwork\ Toggles 20 12 0 12 #ffe3c6 #404040 0;
#X obj 330 446 oscformat;
#X obj 394 486 s udp-client;
#X obj 1491 206 loadbang;
#X msg 1491 228 set unity scene toggleArtwork;
#N canvas 27 102 958 1146 sliderLerp 0;
#X obj 282 809 oscformat;
#X obj 181 582 * 1;
#X obj 299 98 r slider1;
#X obj 299 130 t f b;
#X obj 348 162 t f b;
#X obj 400 188 t f b;
#X obj 451 213 t f b;
#X obj 504 244 t f b;
#X obj 556 270 t f b;
#X obj 607 295 t f b;
#X obj 400 157 r slider3;
#X obj 349 130 r slider2;
#X obj 451 181 r slider4;
#X obj 504 211 r slider5;
#X obj 556 238 r slider6;
#X obj 607 263 r slider7;
#X obj 657 320 t f b;
#X obj 657 288 r slider8;
#X obj 704 343 t f b;
#X obj 704 311 r slider8;
#X obj 304 835 outlet;
#X msg 359 533 set unity artwork 0 motion lerpReset;
#X msg 376 561 set unity artwork 1 motion lerpReset;
#X msg 405 585 set unity artwork 2 motion lerpReset;
#X msg 427 609 set unity artwork 3 motion lerpReset;
#X msg 444 637 set unity artwork 4 motion lerpReset;
#X msg 466 661 set unity artwork 5 motion lerpReset;
#X msg 480 688 set unity artwork 6 motion lerpReset;
#X msg 502 712 set unity artwork 7 motion lerpReset;
#X msg 518 739 set unity artwork 8 motion lerpReset;
#X connect 0 0 20 0;
#X connect 1 0 0 0;
#X connect 2 0 3 0;
#X connect 3 0 1 0;
#X connect 3 1 21 0;
#X connect 4 0 1 0;
#X connect 4 1 22 0;
#X connect 5 0 1 0;
#X connect 5 1 23 0;
#X connect 6 0 1 0;
#X connect 6 1 24 0;
#X connect 7 0 1 0;
#X connect 7 1 25 0;
#X connect 8 0 1 0;
#X connect 8 1 26 0;
#X connect 9 0 1 0;
#X connect 9 1 27 0;
#X connect 10 0 5 0;
#X connect 11 0 4 0;
#X connect 12 0 6 0;
#X connect 13 0 7 0;
#X connect 14 0 8 0;
#X connect 15 0 9 0;
#X connect 16 0 1 0;
#X connect 16 1 28 0;
#X connect 17 0 16 0;
#X connect 18 0 1 0;
#X connect 18 1 29 0;
#X connect 19 0 18 0;
#X connect 21 0 0 0;
#X connect 22 0 0 0;
#X connect 23 0 0 0;
#X connect 24 0 0 0;
#X connect 25 0 0 0;
#X connect 26 0 0 0;
#X connect 27 0 0 0;
#X connect 28 0 0 0;
#X connect 29 0 0 0;
#X restore 645 94 pd sliderLerp;
#X obj 645 210 s udp-client;
#N canvas 257 295 667 741 artworkToggles 0;
#X obj 360 68 r button1;
#X obj 428 408 loadbang;
#X msg 428 430 set unity scene toggleArtwork;
#X obj 385 89 r button2;
#X obj 414 113 r button3;
#X obj 439 134 r button4;
#X obj 465 158 r button5;
#X obj 490 179 r button6;
#X obj 520 204 r button7;
#X obj 544 234 r button8;
#X obj 572 260 r button9;
#X obj 148 168 sel 1;
#X obj 253 178 sel 1;
#X obj 296 196 sel 1;
#X obj 338 213 sel 1;
#X obj 378 234 sel 1;
#X obj 416 258 sel 1;
#X obj 457 277 sel 1;
#X obj 497 297 sel 1;
#X msg 182 215 0, f 2;
#X msg 207 236 1, f 2;
#X msg 261 281 3, f 2;
#X msg 236 260 2, f 2;
#X msg 287 305 4, f 2;
#X msg 312 326 5, f 2;
#X msg 341 350 6, f 2;
#X msg 366 381 7, f 2;
#X msg 394 407 8, f 2;
#X obj 537 318 sel 1;
#X obj 196 103 bng 19 250 50 0 empty empty empty 0 -10 0 12 #fcfcfc #000000 #000000;
#X obj 227 105 bng 19 250 50 0 empty empty empty 0 -10 0 12 #fcfcfc #000000 #000000;
#X obj 182 516 outlet;
#X obj 238 516 s artworkId;
#X connect 0 0 29 0;
#X connect 0 0 11 0;
#X connect 1 0 2 0;
#X connect 2 0 31 0;
#X connect 3 0 12 0;
#X connect 3 0 30 0;
#X connect 4 0 13 0;
#X connect 5 0 14 0;
#X connect 6 0 15 0;
#X connect 7 0 16 0;
#X connect 8 0 17 0;
#X connect 9 0 18 0;
#X connect 10 0 28 0;
#X connect 11 0 19 0;
#X connect 12 0 20 0;
#X connect 13 0 22 0;
#X connect 14 0 21 0;
#X connect 15 0 23 0;
#X connect 16 0 24 0;
#X connect 17 0 25 0;
#X connect 18 0 26 0;
#X connect 19 0 31 0;
#X connect 19 0 32 0;
#X connect 20 0 31 0;
#X connect 20 0 32 0;
#X connect 21 0 31 0;
#X connect 21 0 32 0;
#X connect 22 0 31 0;
#X connect 22 0 32 0;
#X connect 23 0 31 0;
#X connect 23 0 32 0;
#X connect 24 0 31 0;
#X connect 24 0 32 0;
#X connect 25 0 31 0;
#X connect 25 0 32 0;
#X connect 26 0 31 0;
#X connect 26 0 32 0;
#X connect 27 0 31 0;
#X connect 27 0 32 0;
#X connect 28 0 27 0;
#X restore 332 331 pd artworkToggles;
#X msg 61 152 set unity artwork \$1 motion sinX;
#X msg 56 400 set unity artwork \$1 motion cosY;
#X obj 91 117 r knob1;
#X obj 47 342 r knob2;
#X obj 46 551 r knob3;
#N canvas 1106 34 450 300 init 0;
#X obj 168 16 loadbang;
#X msg 172 49 0, f 4;
#X obj 172 72 s artworkId;
#X connect 0 0 1 0;
#X connect 1 0 2 0;
#X restore 182 29 pd init;
#X obj 32 763 cnv 19 230 210 empty empty Endpoint 20 12 0 12 #c6ffc7 #404040 0;
#X floatatom 39 797 5 0 0 0 - - - 0;
#X obj 39 916 oscformat;
#X obj 39 938 s udp-client;
#X obj 39 894 * 1;
#X floatatom 70 865 5 0 0 0 - - - 0;
#X obj 162 796 r artworkId;
#X msg 53 831 set unity artwork \$1 motion range;
#X obj 32 1003 cnv 19 230 210 empty empty Endpoint 20 12 0 12 #c6ffc7 #404040 0;
#X floatatom 39 1037 5 0 0 0 - - - 0;
#X obj 39 1156 oscformat;
#X obj 39 1178 s udp-client;
#X obj 39 1134 * 1;
#X floatatom 70 1105 5 0 0 0 - - - 0;
#X obj 158 1037 r artworkId;
#X msg 53 1071 set unity artwork \$1 motion speed;
#X obj 86 795 r knob4;
#X obj 86 1035 r knob5;
#X text 312 989 make an endpoint that fades in/out background of art;
#X text 308 1020 when artworks are toggled in \, they have an animation;
#X text 306 1040 where they appear bit by bit;
#X msg 861 973 set unity artwork \$1 motion lerpReset;
#X text 315 1093 pressing pads activates or deactivates certain motifs in the paintings;
#X obj 645 178 spigot;
#X obj 684 143 tgl 19 0 empty empty Sliders\ Lerp 0 -10 0 12 #fcfcfc #000000 #000000 0 1;
#X text 940 1121 idea: have a global handler registration/router for endpoints;
#X text 940 1175 lazy initialize monobehaviours;
#X text 961 1296 basically it could be like a broadcast message situation;
#X obj 1445 718 oscformat;
#X msg 1522 681 set unity artwork \$1 color rotate;
#X obj 1445 683 r slider1;
#X obj 1167 946 s udp-client;
#X obj 1409 880 spigot;
#X obj 1448 853 tgl 19 0 empty empty Normal\ Sliders 0 -10 0 12 #fcfcfc #000000 #000000 0 1;
#X obj 1447 811 loadbang;
#X obj 1522 658 r artworkId;
#X obj 1446 779 oscformat;
#X obj 1523 721 r artworkId;
#X msg 1523 746 set unity artwork \$1 color opacity;
#X obj 1446 749 r slider2;
#X msg 1442 620 set unity artwork \$1 color fadeIn;
#X obj 990 564 r artworkId;
#X msg 990 589 set unity artwork \$1 color fadeOut;
#X obj 992 614 oscformat;
#X obj 1442 648 oscformat;
#X obj 1415 620 bng 19 250 50 0 empty empty empty 0 -10 0 12 #fcfcfc #000000 #000000;
#X obj 935 610 bng 19 250 50 0 empty empty empty 0 -10 0 12 #fcfcfc #000000 #000000;
#X msg 1054 104 \; pd dsp \$1 \;;
#X obj 1054 80 tgl 19 0 empty empty empty 0 -10 0 12 #fcfcfc #000000 #000000 0 1;
#X obj 350 161 r artworkId;
#X obj 398 116 s pad;
#X obj 512 560 r pad;
#X obj 576 750 oscformat;
#X obj 576 699 r artworkId;
#X obj 577 71 r artworkId;
#X obj 665 698 oscformat;
#X obj 681 646 r artworkId;
#X obj 512 585 sel 0 1;
#X msg 576 723 set unity artwork \$1 color fadeIn;
#X msg 681 671 set unity artwork \$1 color fadeOut;
#X obj 508 635 bng 19 250 50 0 empty empty empty 0 -10 0 12 #fcfcfc #000000 #000000;
#X obj 537 632 bng 19 250 50 0 empty empty empty 0 -10 0 12 #fcfcfc #000000 #000000;
#X obj 576 778 s udp-client;
#X msg 111 607 set unity artwork \$1 motion sinZ;
#X obj 176 320 r audioTrig;
#X obj 210 343 random 100;
#X obj 169 490 r audioTrig;
#X obj 172 511 random 100;
#X obj 283 43 s randRange1;
#X floatatom 281 17 5 0 0 0 - - - 0;
#X obj 234 283 r randRange1;
#X obj 256 489 r randRange1;
#N canvas 3222 342 921 687 audioIn 0;
#X obj 91 7 adc~, f 13;
#X obj 91 80 env~;
#X obj 74 133 - 60;
#X obj 122 134 > 10;
#X obj 99 173 spigot;
#X obj 139 208 - 10;
#X floatatom 172 109 5 0 0 0 - - - 0;
#X obj 141 264 outlet;
#X obj 263 14 inlet;
#X obj 348 26 loadbang;
#X msg 314 59 10;
#X obj 91 43 +~;
#X connect 0 0 11 0;
#X connect 0 1 11 1;
#X connect 1 0 2 0;
#X connect 2 0 3 0;
#X connect 2 0 4 0;
#X connect 3 0 4 1;
#X connect 4 0 5 0;
#X connect 5 0 7 0;
#X connect 6 0 3 1;
#X connect 6 0 5 1;
#X connect 8 0 6 0;
#X connect 9 0 10 0;
#X connect 10 0 6 0;
#X connect 11 0 1 0;
#X restore 908 161 pd audioIn;
#X floatatom 908 129 5 0 0 1 thresh\ db - - 0;
#X floatatom 908 222 5 0 0 0 - - - 0;
#X obj 1021 324 s audioTrig;
#X obj 1021 260 t b;
#X obj 908 247 s audioEnv;
#X obj 1021 285 spigot;
#X obj 1097 166 r pad;
#X obj 1060 233 tgl 19 0 empty empty empty 0 -10 0 12 #fcfcfc #000000 #000000 0 1;
#X obj 1097 193 sel 4 5;
#X msg 502 496;
#X obj 1333 167 r pad;
#X obj 1440 267 oscformat;
#X obj 1440 289 s udp-client;
#X msg 1493 179 set unity artwork \$1 motion lookAtCamera;
#X obj 360 397 loadbang;
#X msg 360 419 set unity scene toggleArtwork;
#X obj 1333 190 sel 6 7;
#X obj 1333 264 oscformat;
#X obj 1333 286 s udp-client;
#X obj 1442 592 r artworkId;
#X obj 1493 151 loadbang;
#X text 970 1367 IDEA: Make custom post-processing effects;
#X obj 538 1213 r slider3;
#X floatatom 537 1260 5 0 0 0 - - - 0;
#X obj 627 1288 oscformat;
#X obj 643 1236 r artworkId;
#X obj 627 1318 s udp-client;
#X msg 643 1260 set unity camera kaliedoscope intensity;
#X obj 546 1358 r slider4;
#X obj 623 1473 oscformat;
#X obj 638 1421 r artworkId;
#X msg 639 1445 set unity camera echo intensity;
#X floatatom 542 1396 5 0 0 0 - - - 0;
#X obj 626 1498 s udp-client;
#X connect 0 0 24 1;
#X connect 2 0 24 2;
#X connect 3 0 24 1;
#X connect 4 0 24 0;
#X connect 6 0 9 0;
#X connect 7 0 8 0;
#X connect 9 0 7 0;
#X connect 10 0 9 1;
#X connect 13 0 16 0;
#X connect 14 0 15 0;
#X connect 16 0 14 0;
#X connect 17 0 16 1;
#X connect 19 0 22 0;
#X connect 20 0 21 0;
#X connect 22 0 20 0;
#X connect 23 0 22 1;
#X connect 26 0 29 0;
#X connect 27 0 28 0;
#X connect 29 0 27 0;
#X connect 30 0 29 1;
#X connect 31 0 26 0;
#X connect 32 0 121 0;
#X connect 33 0 53 0;
#X connect 34 0 52 0;
#X connect 35 0 79 0;
#X connect 37 0 38 0;
#X connect 39 0 37 0;
#X connect 43 0 37 0;
#X connect 43 1 108 0;
#X connect 47 0 48 0;
#X connect 48 0 142 0;
#X connect 49 0 81 0;
#X connect 51 0 45 0;
#X connect 52 0 7 0;
#X connect 53 0 14 0;
#X connect 54 0 6 0;
#X connect 55 0 13 0;
#X connect 56 0 19 0;
#X connect 59 0 62 0;
#X connect 60 0 61 0;
#X connect 62 0 60 0;
#X connect 63 0 62 1;
#X connect 64 0 65 0;
#X connect 65 0 60 0;
#X connect 67 0 70 0;
#X connect 68 0 69 0;
#X connect 70 0 68 0;
#X connect 71 0 70 1;
#X connect 72 0 73 0;
#X connect 73 0 68 0;
#X connect 74 0 59 0;
#X connect 75 0 67 0;
#X connect 79 0 27 0;
#X connect 81 0 50 0;
#X connect 82 0 81 1;
#X connect 86 0 90 0;
#X connect 87 0 86 0;
#X connect 88 0 86 0;
#X connect 90 0 89 0;
#X connect 91 0 90 1;
#X connect 92 0 91 0;
#X connect 93 0 87 0;
#X connect 94 0 90 0;
#X connect 95 0 96 0;
#X connect 96 0 94 0;
#X connect 97 0 94 0;
#X connect 98 0 102 0;
#X connect 99 0 100 0;
#X connect 100 0 101 0;
#X connect 101 0 89 0;
#X connect 102 0 89 0;
#X connect 103 0 102 0;
#X connect 104 0 101 0;
#X connect 106 0 105 0;
#X connect 107 0 39 0;
#X connect 109 0 115 0;
#X connect 110 0 120 0;
#X connect 111 0 116 0;
#X connect 113 0 120 0;
#X connect 114 0 117 0;
#X connect 115 0 110 0;
#X connect 115 0 118 0;
#X connect 115 1 113 0;
#X connect 115 1 119 0;
#X connect 116 0 110 0;
#X connect 117 0 113 0;
#X connect 121 0 20 0;
#X connect 122 0 123 0;
#X connect 123 0 13 0;
#X connect 124 0 125 0;
#X connect 125 0 19 0;
#X connect 127 0 126 0;
#X connect 128 0 123 1;
#X connect 129 0 125 1;
#X connect 130 0 132 0;
#X connect 130 0 134 0;
#X connect 131 0 130 0;
#X connect 132 0 135 0;
#X connect 134 0 136 0;
#X connect 136 0 133 0;
#X connect 137 0 139 0;
#X connect 138 0 136 1;
#X connect 139 0 138 0;
#X connect 139 1 133 0;
#X connect 141 0 147 0;
#X connect 142 0 143 0;
#X connect 144 0 148 0;
#X connect 145 0 146 0;
#X connect 146 0 45 0;
#X connect 147 0 148 0;
#X connect 147 1 142 0;
#X connect 148 0 149 0;
#X connect 150 0 98 0;
#X connect 151 0 144 0;
#X connect 153 0 154 0;
#X connect 153 0 155 0;
#X connect 155 0 157 0;
#X connect 156 0 158 0;
#X connect 158 0 155 0;
#X connect 159 0 160 0;
#X connect 159 0 163 0;
#X connect 160 0 164 0;
#X connect 161 0 162 0;
#X connect 162 0 160 0;
