#N canvas 1219 8 1326 988 12;
#X text 32 29 TODO: Implement the main functionality of sending data to Unity using the patches in these folders;
#X obj 659 32 cnv 19 400 200 empty empty UDP\ Client 20 12 0 12 #ffe3c6 #404040 0;
#X msg 840 116 192.168.1.205;
#X listbox 840 91 20 0 0 0 - - - 0;
#X obj 680 203 network/udp-client;
#X msg 839 168 8000;
#X msg 840 140 localhost;
#X obj 680 95 r udp-client;
#X obj 35 82 cnv 19 230 210 empty empty Endpoint 20 12 0 12 #c6ffc7 #404040 0;
#X floatatom 51 119 5 0 0 0 - - - 0;
#X obj 51 247 oscformat;
#X obj 51 269 s udp-client;
#X obj 472 32 midi/minilogue-midi mnlg;
#X obj 94 119 r minilogue-vco1-pitch;
#X msg 83 216 format f;
#X obj 38 303 cnv 19 230 210 empty empty Endpoint 20 12 0 12 #c6ffc7 #404040 0;
#X floatatom 54 340 5 0 0 0 - - - 0;
#X obj 54 468 oscformat;
#X obj 54 490 s udp-client;
#X msg 86 437 format f;
#X obj 37 519 cnv 19 230 210 empty empty Endpoint 20 12 0 12 #c6ffc7 #404040 0;
#X floatatom 53 556 5 0 0 0 - - - 0;
#X obj 53 684 oscformat;
#X obj 53 706 s udp-client;
#X msg 85 653 format f;
#X obj 97 340 r minilogue-vco1-shape;
#X obj 96 556 r minilogue-vco1-gain;
#X obj 54 436 * 1;
#X obj 53 655 * 1;
#X obj 51 216 * 1;
#X floatatom 81 624 5 0 0 0 - - - 0;
#X floatatom 84 405 5 0 0 0 - - - 0;
#X floatatom 82 187 5 0 0 0 - - - 0;
#X obj 38 738 cnv 19 230 210 empty empty Endpoint 20 12 0 12 #c6ffc7 #404040 0;
#X floatatom 54 775 5 0 0 0 - - - 0;
#X obj 54 903 oscformat;
#X obj 54 925 s udp-client;
#X obj 97 775 r minilogue-filter;
#X obj 44 803 + 1;
#X obj 44 827 / 2;
#X floatatom 60 853 5 0 0 0 - - - 0;
#X msg 74 148 set unity controller motif moveX;
#X msg 77 369 set unity controller motif moveY;
#X msg 76 585 set unity controller motif moveZ;
#X msg 77 804 set unity controller motif lerpReset;
#X obj 38 959 cnv 19 230 210 empty empty Endpoint 20 12 0 12 #c6ffc7 #404040 0;
#X floatatom 54 996 5 0 0 0 - - - 0;
#X obj 54 1124 oscformat;
#X obj 54 1146 s udp-client;
#X msg 77 1025 set unity controller moveZ;
#X obj 37 1179 cnv 19 230 210 empty empty Endpoint 20 12 0 12 #c6ffc7 #404040 0;
#X floatatom 53 1216 5 0 0 0 - - - 0;
#X obj 53 1344 oscformat;
#X obj 53 1366 s udp-client;
#X msg 76 1245 set unity controller rotateX;
#X obj 37 1409 cnv 19 230 210 empty empty Endpoint 20 12 0 12 #c6ffc7 #404040 0;
#X floatatom 53 1446 5 0 0 0 - - - 0;
#X obj 53 1574 oscformat;
#X obj 53 1596 s udp-client;
#X obj 56 1530 * 1;
#X floatatom 84 1499 5 0 0 0 - - - 0;
#X obj 53 1302 * 1;
#X floatatom 81 1271 5 0 0 0 - - - 0;
#X obj 53 1083 * 1;
#X floatatom 96 1050 5 0 0 0 - - - 0;
#X obj 97 1218 r minilogue-vco2-shape;
#X obj 94 1445 r minilogue-vco2-gain;
#X obj 97 996 r minilogue-vco2-pitch;
#X msg 76 1475 set unity controller rotateY;
#X obj 356 737 cnv 19 230 210 empty empty Endpoint 20 12 0 12 #ffe3c6 #404040 0;
#X floatatom 372 774 5 0 0 0 - - - 0;
#X obj 372 902 oscformat;
#X obj 372 924 s udp-client;
#X obj 362 802 + 1;
#X obj 362 826 / 2;
#X floatatom 378 852 5 0 0 0 - - - 0;
#X msg 395 803 set unity controller motif lerpCenter;
#X obj 415 774 r minilogue-resonance;
#X msg 447 851 format f;
#X obj 426 1113 cnv 19 230 210 empty empty Endpoint 20 12 0 12 #c6feff #404040 0;
#X floatatom 442 1150 5 0 0 0 - - - 0;
#X obj 442 1278 oscformat;
#X obj 442 1300 s udp-client;
#X msg 474 1247 format f;
#X obj 442 1246 * 1;
#X floatatom 472 1215 5 0 0 0 - - - 0;
#X obj 722 865 notein;
#X floatatom 767 897 5 0 0 0 - - - 0;
#X floatatom 807 896 5 0 0 0 - - - 0;
#X obj 742 920 > 0;
#X obj 723 946 spigot;
#X obj 724 970 pack f f;
#X obj 786 947 / 127;
#X msg 465 1179 set unity controller motif physics togglePhysics;
#X obj 659 1212 cnv 19 230 210 empty empty Endpoint 20 12 0 12 #c6feff #404040 0;
#X floatatom 675 1249 5 0 0 0 - - - 0;
#X obj 675 1377 oscformat;
#X obj 675 1399 s udp-client;
#X msg 707 1346 format f;
#X obj 675 1345 * 1;
#X floatatom 705 1314 5 0 0 0 - - - 0;
#X msg 698 1278 set unity controller motif physics toggleGravity;
#X obj 724 993 route 36 38 40;
#X obj 916 1328 cnv 19 230 210 empty empty Endpoint 20 12 0 12 #c6feff #404040 0;
#X floatatom 932 1365 5 0 0 0 - - - 0;
#X obj 932 1493 oscformat;
#X obj 932 1515 s udp-client;
#X msg 964 1462 format f;
#X obj 932 1461 * 1;
#X floatatom 962 1430 5 0 0 0 - - - 0;
#X msg 955 1394 set unity controller motif physics explode;
#X obj 656 299 cnv 19 230 210 empty empty Endpoint 20 12 0 12 #ffe3c6 #404040 0;
#X floatatom 672 336 5 0 0 0 - - - 0;
#X obj 672 464 oscformat;
#X obj 672 486 s udp-client;
#X obj 662 364 + 1;
#X obj 662 388 / 2;
#X floatatom 678 411 5 0 0 0 - - - 0;
#X msg 695 365 set unity controller motif lerpCenter;
#X msg 747 413 format f;
#X obj 715 336 r minilogue-sync, f 22;
#X obj 390 187 notein;
#X obj 354 241 pack f f f;
#X obj 354 292 oscformat;
#X obj 354 374 s udp-client;
#X msg 367 265 set unity midi note;
#X floatatom 696 1091 5 0 0 0 - - - 0;
#X obj 28 1673 cnv 19 230 210 empty empty Endpoint 20 12 0 12 #c6ffc7 #404040 0;
#X floatatom 44 1710 5 0 0 0 - - - 0;
#X obj 44 1838 oscformat;
#X obj 44 1860 s udp-client;
#X obj 34 1738 + 1;
#X obj 34 1762 / 2;
#X floatatom 50 1788 5 0 0 0 - - - 0;
#X obj 28 1894 cnv 19 230 210 empty empty Endpoint 20 12 0 12 #c6ffc7 #404040 0;
#X floatatom 44 1931 5 0 0 0 - - - 0;
#X obj 44 2059 oscformat;
#X obj 44 2081 s udp-client;
#X obj 27 2114 cnv 19 230 210 empty empty Endpoint 20 12 0 12 #c6ffc7 #404040 0;
#X floatatom 43 2151 5 0 0 0 - - - 0;
#X obj 43 2279 oscformat;
#X obj 43 2301 s udp-client;
#X obj 27 2344 cnv 19 230 210 empty empty Endpoint 20 12 0 12 #c6ffc7 #404040 0;
#X floatatom 43 2381 5 0 0 0 - - - 0;
#X obj 43 2509 oscformat;
#X obj 43 2531 s udp-client;
#X obj 46 2465 * 1;
#X floatatom 74 2434 5 0 0 0 - - - 0;
#X obj 43 2237 * 1;
#X floatatom 71 2206 5 0 0 0 - - - 0;
#X obj 43 2018 * 1;
#X floatatom 86 1985 5 0 0 0 - - - 0;
#X obj 87 1710 r minilogue-amp-attack;
#X obj 87 1931 r minilogue-amp-decay;
#X obj 86 2152 r minilogue-amp-sustain;
#X obj 84 2380 r minilogue-amp-release;
#X msg 67 1739 set unity camera moveX;
#X msg 66 1958 set unity camera moveY;
#X msg 66 2410 set unity camera rotateX;
#X obj 385 2086 cnv 19 230 210 empty empty Endpoint 20 12 0 12 #c6ffc7 #404040 0;
#X floatatom 401 2123 5 0 0 0 - - - 0;
#X obj 401 2251 oscformat;
#X obj 401 2273 s udp-client;
#X obj 404 2207 * 1;
#X floatatom 432 2176 5 0 0 0 - - - 0;
#X msg 424 2152 set unity controller colorRotate;
#X obj 442 2121 r minilogue-env-attack;
#X msg 66 2180 set unity camera moveZ;
#X obj 696 2091 cnv 19 230 210 empty empty Endpoint 20 12 0 12 #c6ffc7 #404040 0;
#X floatatom 712 2128 5 0 0 0 - - - 0;
#X obj 712 2256 oscformat;
#X obj 712 2278 s udp-client;
#X obj 715 2212 * 1;
#X floatatom 743 2181 5 0 0 0 - - - 0;
#X msg 735 2157 set unity camera speed;
#X obj 707 2156 + 1;
#X obj 707 2180 / 2;
#X obj 753 2126 r minilogue-amp-release;
#X connect 2 0 4 1;
#X connect 3 0 4 1;
#X connect 5 0 4 2;
#X connect 6 0 4 1;
#X connect 7 0 4 0;
#X connect 9 0 29 0;
#X connect 10 0 11 0;
#X connect 13 0 9 0;
#X connect 14 0 10 0;
#X connect 16 0 27 0;
#X connect 17 0 18 0;
#X connect 19 0 17 0;
#X connect 21 0 28 0;
#X connect 22 0 23 0;
#X connect 24 0 22 0;
#X connect 25 0 16 0;
#X connect 26 0 21 0;
#X connect 27 0 17 0;
#X connect 28 0 22 0;
#X connect 29 0 10 0;
#X connect 30 0 28 1;
#X connect 31 0 27 1;
#X connect 32 0 29 1;
#X connect 34 0 38 0;
#X connect 35 0 36 0;
#X connect 37 0 34 0;
#X connect 38 0 39 0;
#X connect 39 0 35 0;
#X connect 39 0 40 0;
#X connect 41 0 10 0;
#X connect 42 0 17 0;
#X connect 43 0 22 0;
#X connect 44 0 35 0;
#X connect 46 0 63 0;
#X connect 47 0 48 0;
#X connect 49 0 47 0;
#X connect 51 0 61 0;
#X connect 52 0 53 0;
#X connect 54 0 52 0;
#X connect 56 0 59 0;
#X connect 57 0 58 0;
#X connect 59 0 57 0;
#X connect 60 0 59 1;
#X connect 61 0 52 0;
#X connect 62 0 61 1;
#X connect 63 0 47 0;
#X connect 64 0 63 1;
#X connect 65 0 51 0;
#X connect 66 0 56 0;
#X connect 67 0 46 0;
#X connect 68 0 57 0;
#X connect 70 0 73 0;
#X connect 71 0 72 0;
#X connect 73 0 74 0;
#X connect 74 0 71 0;
#X connect 74 0 75 0;
#X connect 76 0 71 0;
#X connect 77 0 70 0;
#X connect 78 0 71 0;
#X connect 80 0 84 0;
#X connect 81 0 82 0;
#X connect 83 0 81 0;
#X connect 84 0 81 0;
#X connect 85 0 84 1;
#X connect 86 0 87 0;
#X connect 86 0 90 0;
#X connect 86 1 88 0;
#X connect 86 1 89 0;
#X connect 86 1 92 0;
#X connect 89 0 90 1;
#X connect 90 0 91 0;
#X connect 91 0 102 0;
#X connect 92 0 91 1;
#X connect 93 0 81 0;
#X connect 95 0 99 0;
#X connect 96 0 97 0;
#X connect 98 0 96 0;
#X connect 99 0 96 0;
#X connect 100 0 99 1;
#X connect 101 0 96 0;
#X connect 102 0 80 0;
#X connect 102 0 126 0;
#X connect 102 1 95 0;
#X connect 102 2 104 0;
#X connect 104 0 108 0;
#X connect 105 0 106 0;
#X connect 107 0 105 0;
#X connect 108 0 105 0;
#X connect 109 0 108 1;
#X connect 110 0 105 0;
#X connect 112 0 115 0;
#X connect 113 0 114 0;
#X connect 115 0 116 0;
#X connect 116 0 113 0;
#X connect 116 0 117 0;
#X connect 118 0 113 0;
#X connect 119 0 113 0;
#X connect 120 0 112 0;
#X connect 121 0 122 0;
#X connect 121 1 122 1;
#X connect 121 2 122 2;
#X connect 122 0 123 0;
#X connect 123 0 124 0;
#X connect 125 0 123 0;
#X connect 128 0 131 0;
#X connect 129 0 130 0;
#X connect 131 0 132 0;
#X connect 132 0 129 0;
#X connect 132 0 133 0;
#X connect 135 0 150 0;
#X connect 136 0 137 0;
#X connect 139 0 148 0;
#X connect 140 0 141 0;
#X connect 144 0 145 0;
#X connect 146 0 144 0;
#X connect 147 0 146 1;
#X connect 148 0 140 0;
#X connect 149 0 148 1;
#X connect 150 0 136 0;
#X connect 151 0 150 1;
#X connect 152 0 128 0;
#X connect 153 0 135 0;
#X connect 154 0 139 0;
#X connect 155 0 143 0;
#X connect 156 0 129 0;
#X connect 157 0 136 0;
#X connect 158 0 144 0;
#X connect 160 0 163 0;
#X connect 161 0 162 0;
#X connect 163 0 161 0;
#X connect 164 0 163 1;
#X connect 165 0 161 0;
#X connect 166 0 160 0;
#X connect 167 0 140 0;
#X connect 169 0 175 0;
#X connect 170 0 171 0;
#X connect 172 0 170 0;
#X connect 173 0 172 1;
#X connect 174 0 170 0;
#X connect 175 0 176 0;
#X connect 176 0 172 0;
#X connect 177 0 169 0;
