#N canvas -1080 -1013 1080 1867 12;
#X obj -1 -2 cnv 19 2000 5000 empty empty empty 20 12 0 12 #9f9f9f #404040 0;
#X floatatom 50 182 5 0 0 0 - motionMult - 0;
#X floatatom 60 192 5 0 0 0 - motionMult - 0;
#X obj 12 113 cnv 19 1000 230 empty empty Motion 20 12 0 12 #c6ffc7 #404040 0;
#X obj 32 287 oscformat;
#X obj 32 309 s udp-client;
#X obj 32 185 * 1;
#X obj 39 210 r artworkId;
#X obj 11 916 cnv 19 260 180 empty empty Keys 20 12 0 12 #ffc7c6 #404040 0;
#X obj 29 1030 oscformat;
#X obj 29 1052 s udp-client;
#X msg 37 1005 set unity artwork \$1 midi note;
#X obj 12 13 cnv 19 260 80 empty empty empty 20 12 0 12 #c6feff #404040 0;
#X floatatom 658 2781 5 0 0 1 Artwork\ ID artworkId - 24;
#X obj 13 1326 cnv 19 260 250 empty empty Buttons\ -\ Artwork\ Toggles 20 12 0 12 #ffe3c6 #404040 0;
#X obj 31 1539 oscformat;
#N canvas 371 498 667 741 artworkToggles 0;
#X obj 360 68 r button1;
#X obj 428 408 loadbang;
#X msg 428 430 set unity scene toggleArtwork;
#X obj 385 89 r button2;
#X obj 414 113 r button3;
#X obj 439 134 r button4;
#X obj 465 158 r button5;
#X obj 490 179 r button6;
#X obj 520 204 r button7;
#X obj 544 234 r button8;
#X obj 572 260 r button9;
#X obj 148 168 sel 1;
#X obj 253 178 sel 1;
#X obj 296 196 sel 1;
#X obj 338 213 sel 1;
#X obj 378 234 sel 1;
#X obj 416 258 sel 1;
#X obj 457 277 sel 1;
#X obj 497 297 sel 1;
#X msg 182 215 0, f 2;
#X msg 207 236 1, f 2;
#X msg 261 281 3, f 2;
#X msg 236 260 2, f 2;
#X msg 287 305 4, f 2;
#X msg 312 326 5, f 2;
#X msg 341 350 6, f 2;
#X msg 366 381 7, f 2;
#X msg 394 407 8, f 2;
#X obj 537 318 sel 1;
#X obj 196 103 bng 19 250 50 0 empty empty empty 0 -10 0 12 #fcfcfc #000000 #000000;
#X obj 227 105 bng 19 250 50 0 empty empty empty 0 -10 0 12 #fcfcfc #000000 #000000;
#X obj 182 516 outlet;
#X obj 276 532 s artworkId;
#X connect 0 0 29 0;
#X connect 0 0 11 0;
#X connect 1 0 2 0;
#X connect 2 0 31 0;
#X connect 3 0 12 0;
#X connect 3 0 30 0;
#X connect 4 0 13 0;
#X connect 5 0 14 0;
#X connect 6 0 15 0;
#X connect 7 0 16 0;
#X connect 8 0 17 0;
#X connect 9 0 18 0;
#X connect 10 0 28 0;
#X connect 11 0 19 0;
#X connect 12 0 20 0;
#X connect 13 0 22 0;
#X connect 14 0 21 0;
#X connect 15 0 23 0;
#X connect 16 0 24 0;
#X connect 17 0 25 0;
#X connect 18 0 26 0;
#X connect 19 0 31 0;
#X connect 20 0 31 0;
#X connect 21 0 31 0;
#X connect 22 0 31 0;
#X connect 23 0 31 0;
#X connect 24 0 31 0;
#X connect 25 0 31 0;
#X connect 26 0 31 0;
#X connect 27 0 31 0;
#X connect 28 0 27 0;
#X restore 31 1363 pd artworkToggles;
#X msg 39 234 set unity artwork \$1 motion sinX, f 11;
#X obj 37 982 r artworkId;
#X obj 41 1440 loadbang;
#X msg 41 1462 set unity scene toggleArtwork, f 15;
#X obj 12 374 cnv 19 1100 230 empty empty Sliders 20 12 0 12 #e3c6ff #404040 0;
#X obj 32 543 oscformat;
#X obj 42 452 r artworkId;
#X obj 32 564 s udp-client;
#X msg 42 476 set unity camera kaliedoscope intensity, f 12;
#X obj 14 1596 cnv 19 300 230 empty empty Audio 20 12 0 12 #c6feff #404040 0;
#X msg 34 1713 \; pd dsp \$1 \;;
#X obj 34 1686 tgl 19 0 empty audioToggle empty 0 -10 0 12 #fcfcfc #000000 #000000 0 1;
#N canvas 165 180 921 688 audioIn 0;
#X obj 91 7 adc~, f 13;
#X obj 130 283 > 10;
#X obj 91 313 spigot;
#X obj 91 368 - 10;
#X obj 91 403 outlet;
#X obj 199 7 inlet;
#X obj 212 176 loadbang;
#X msg 212 199 10;
#X obj 91 43 +~;
#X obj 296 319 s dbInput;
#X floatatom 35 241 5 0 0 0 - - - 0;
#X obj 199 231 t f f;
#X obj 91 253 - 100;
#X floatatom 38 356 5 0 0 0 - - - 0;
#N canvas 329 161 625 417 vu 0;
#X obj 59 129 env~ 1024;
#X obj 58 74 inlet~;
#X obj 59 287 - 100;
#X obj 59 361 outlet;
#X connect 0 0 2 0;
#X connect 1 0 0 0;
#X connect 2 0 3 0;
#X restore 90 172 pd vu;
#X obj 128 136 s~ audioInput;
#X obj 128 107 *~;
#X obj 162 62 r inputGain;
#X connect 0 0 8 0;
#X connect 0 1 8 1;
#X connect 1 0 2 1;
#X connect 2 0 3 0;
#X connect 3 0 4 0;
#X connect 5 0 11 0;
#X connect 6 0 7 0;
#X connect 7 0 11 0;
#X connect 8 0 14 0;
#X connect 8 0 16 0;
#X connect 11 0 1 1;
#X connect 11 1 3 1;
#X connect 12 0 1 0;
#X connect 12 0 2 0;
#X connect 12 0 13 0;
#X connect 14 0 12 0;
#X connect 14 0 9 0;
#X connect 16 0 15 0;
#X connect 17 0 16 1;
#X restore 144 1658 pd audioIn;
#X floatatom 144 1626 5 0 0 1 thresh\ db audioThreshDb - 0;
#X floatatom 154 1685 5 0 0 0 - - - 0;
#X obj 144 1789 s audioTrig;
#X obj 144 1740 t b;
#X obj 154 1710 s audioEnv;
#X obj 144 1764 spigot;
#X obj 183 1738 tgl 19 0 empty enabAudioTrig empty 0 -10 0 12 #fcfcfc #000000 #000000 0 1;
#X obj 291 12 cnv 19 500 80 empty empty empty 20 12 0 12 #ffe3c6 #404040 0;
#X floatatom 32 139 5 0 0 1 knob1 knob1 - 0;
#X floatatom 308 40 5 0 0 2 motionMult setMotionMult motionMult 0;
#X floatatom 50 161 5 0 0 0 - motionMult - 0;
#X obj 152 287 oscformat;
#X obj 152 309 s udp-client;
#X obj 152 185 * 1;
#X obj 159 210 r artworkId;
#X floatatom 152 139 5 0 0 1 knob2 knob2 - 0;
#X floatatom 170 161 5 0 0 0 - motionMult - 0;
#X msg 159 233 set unity artwork \$1 motion cosY, f 11;
#X obj 272 287 oscformat;
#X obj 272 309 s udp-client;
#X obj 272 185 * 1;
#X obj 279 210 r artworkId;
#X floatatom 272 139 5 0 0 1 knob3 knob3 - 0;
#X floatatom 290 161 5 0 0 0 - motionMult - 0;
#X msg 279 233 set unity artwork \$1 motion sinZ, f 11;
#X obj 392 287 oscformat;
#X obj 392 309 s udp-client;
#X obj 392 185 * 1;
#X obj 399 210 r artworkId;
#X floatatom 392 139 5 0 0 1 knob4 knob4 - 0;
#X floatatom 410 161 5 0 0 0 - - - 0;
#X msg 399 233 set unity artwork \$1 motion range, f 12;
#X obj 512 248 oscformat;
#X floatatom 512 139 5 0 0 1 knob5 knob5 - 0;
#X obj 14 1976 cnv 19 200 150 empty empty empty 20 12 0 12 #e0e0e0 #404040 0;
#X msg 36 2018 192.168.1.205;
#X msg 145 2018 8000, f 5;
#X msg 37 2043 localhost;
#X obj 27 1988 r udp-client;
#X obj 27 2096 network/udp-client, f 24;
#X obj 12 645 cnv 19 1000 230 empty empty Pads 20 12 0 12 #ffe3c6 #404040 0;
#X obj 32 671 r pad;
#X obj 32 814 oscformat;
#X obj 32 836 s udp-client;
#X obj 152 671 r pad;
#X obj 152 814 oscformat;
#X obj 152 836 s udp-client;
#X obj 272 671 r pad;
#X obj 272 814 oscformat;
#X obj 272 836 s udp-client;
#X obj 392 671 r pad;
#X obj 392 813 oscformat;
#X obj 392 836 s udp-client;
#X obj 512 671 r pad;
#X obj 632 671 r pad;
#X obj 632 836 s udp-client;
#X obj 752 671 r pad;
#X obj 752 814 oscformat;
#X obj 752 836 s udp-client;
#X obj 752 693 sel 6;
#X obj 872 671 r pad;
#X msg 882 738 set unity artwork \$1 motion lookAtCamera, f 12;
#X obj 872 814 oscformat;
#X obj 872 836 s udp-client;
#X obj 872 693 sel 7;
#X obj 29 956 r keys;
#X obj 32 693 sel 0;
#X obj 152 693 sel 1;
#X obj 272 693 sel 2;
#X obj 392 693 sel 3;
#X obj 512 693 sel 4;
#X obj 632 693 sel 5;
#X msg 162 738 set unity artwork \$1 color fadeOut, f 12;
#X msg 282 738 set unity artwork \$1, f 12;
#X msg 402 738 set unity artwork \$1, f 12;
#X msg 761 738 set unity artwork \$1, f 12;
#X obj 20 2654 cnv 19 500 800 empty empty JUNK 20 12 0 12 #e0e0e0 #404040 0;
#X obj 227 2827 oscformat;
#X obj 227 2776 r artworkId;
#X obj 41 2768 oscformat;
#X obj 41 2719 r artworkId;
#X msg 227 2800 set unity artwork \$1 color fadeIn;
#X msg 41 2744 set unity artwork \$1 color fadeOut;
#X obj 263 2892 s udp-client;
#X obj 19 2145 cnv 19 500 500 empty empty IDEAS 20 12 0 12 #e0e0e0 #404040 0;
#N canvas 27 102 958 1146 sliderLerp 0;
#X obj 282 809 oscformat;
#X obj 181 582 * 1;
#X obj 299 98 r slider1;
#X obj 299 130 t f b;
#X obj 348 162 t f b;
#X obj 400 188 t f b;
#X obj 451 213 t f b;
#X obj 504 244 t f b;
#X obj 556 270 t f b;
#X obj 607 295 t f b;
#X obj 400 157 r slider3;
#X obj 349 130 r slider2;
#X obj 451 181 r slider4;
#X obj 504 211 r slider5;
#X obj 556 238 r slider6;
#X obj 607 263 r slider7;
#X obj 657 320 t f b;
#X obj 657 288 r slider8;
#X obj 704 343 t f b;
#X obj 704 311 r slider8;
#X obj 304 835 outlet;
#X msg 359 533 set unity artwork 0 motion lerpReset;
#X msg 376 561 set unity artwork 1 motion lerpReset;
#X msg 405 585 set unity artwork 2 motion lerpReset;
#X msg 427 609 set unity artwork 3 motion lerpReset;
#X msg 444 637 set unity artwork 4 motion lerpReset;
#X msg 466 661 set unity artwork 5 motion lerpReset;
#X msg 480 688 set unity artwork 6 motion lerpReset;
#X msg 502 712 set unity artwork 7 motion lerpReset;
#X msg 518 739 set unity artwork 8 motion lerpReset;
#X connect 0 0 20 0;
#X connect 1 0 0 0;
#X connect 2 0 3 0;
#X connect 3 0 1 0;
#X connect 3 1 21 0;
#X connect 4 0 1 0;
#X connect 4 1 22 0;
#X connect 5 0 1 0;
#X connect 5 1 23 0;
#X connect 6 0 1 0;
#X connect 6 1 24 0;
#X connect 7 0 1 0;
#X connect 7 1 25 0;
#X connect 8 0 1 0;
#X connect 8 1 26 0;
#X connect 9 0 1 0;
#X connect 9 1 27 0;
#X connect 10 0 5 0;
#X connect 11 0 4 0;
#X connect 12 0 6 0;
#X connect 13 0 7 0;
#X connect 14 0 8 0;
#X connect 15 0 9 0;
#X connect 16 0 1 0;
#X connect 16 1 28 0;
#X connect 17 0 16 0;
#X connect 18 0 1 0;
#X connect 18 1 29 0;
#X connect 19 0 18 0;
#X connect 21 0 0 0;
#X connect 22 0 0 0;
#X connect 23 0 0 0;
#X connect 24 0 0 0;
#X connect 25 0 0 0;
#X connect 26 0 0 0;
#X connect 27 0 0 0;
#X connect 28 0 0 0;
#X connect 29 0 0 0;
#X restore 46 2208 pd sliderLerp;
#X obj 46 2324 s udp-client;
#X obj 46 2292 spigot;
#X obj 85 2257 tgl 19 0 empty empty Sliders\ Lerp 0 -10 0 12 #fcfcfc #000000 #000000 0 1;
#X obj 42 2893 loadbang;
#X msg 42 2915 set unity scene toggleArtwork;
#X obj 42 2950 oscformat;
#X obj 883 715 r artworkId;
#X obj 762 715 r artworkId;
#X obj 402 715 r artworkId;
#X obj 282 715 r artworkId;
#X obj 162 715 r artworkId;
#X obj 61 693 r artworkId;
#X obj 31 1413 spigot;
#X obj 70 1389 tgl 19 0 empty empty Enable\ Toggles 23 10 0 12 #fcfcfc #000000 #000000 0 1;
#X obj 512 837 s enabAudioTrig;
#X floatatom 388 40 5 0 0 2 audioThreshDb setAudioThreshDb audioThreshDb 0;
#X obj 34 1622 loadbang;
#X obj 14 1886 cnv 19 200 76 empty empty empty 20 12 0 12 #e0e0e0 #404040 0;
#N canvas 403 88 1099 730 init 0;
#X obj 168 16 loadbang;
#X msg 89 238 0, f 4;
#X obj 89 261 s artworkId;
#X obj 181 260 s setMotionMult;
#X msg 181 235 1;
#X obj 300 260 s setAudioThreshDb;
#X msg 300 237 20;
#X msg 451 225 1;
#X obj 453 256 s setInputGain;
#X connect 0 0 1 0;
#X connect 0 0 4 0;
#X connect 0 0 6 0;
#X connect 0 0 7 0;
#X connect 1 0 2 0;
#X connect 4 0 3 0;
#X connect 6 0 5 0;
#X connect 7 0 8 0;
#X restore 27 1903 pd init;
#X obj 152 543 oscformat;
#X obj 162 453 r artworkId;
#X obj 152 564 s udp-client;
#X obj 272 543 oscformat;
#X obj 280 428 r artworkId;
#X obj 272 564 s udp-client;
#X obj 392 400 r slider4;
#X obj 392 543 oscformat;
#X obj 402 453 r artworkId;
#X obj 392 564 s udp-client;
#X obj 512 543 oscformat;
#X obj 523 426 r artworkId;
#X obj 512 564 s udp-client;
#X obj 632 543 oscformat;
#X obj 642 453 r artworkId;
#X obj 632 564 s udp-client;
#X obj 752 543 oscformat;
#X obj 762 452 r artworkId;
#X obj 752 564 s udp-client;
#X obj 872 543 oscformat;
#X obj 882 453 r artworkId;
#X obj 872 564 s udp-client;
#X obj 32 400 r slider1;
#X obj 152 400 r slider2;
#X obj 272 400 r slider3;
#X obj 512 400 r slider5;
#X obj 632 400 r slider6;
#X obj 752 380 r slider7;
#X obj 872 380 r slider8;
#X obj 982 543 oscformat;
#X obj 992 453 r artworkId;
#X obj 982 564 s udp-client;
#X obj 982 400 r slider9;
#X obj 142 3148 oscformat;
#X msg 219 3111 set unity artwork \$1 color rotate;
#X obj 142 3113 r slider1;
#X obj 106 3310 spigot;
#X obj 145 3283 tgl 19 0 empty empty Normal\ Sliders 0 -10 0 12 #fcfcfc #000000 #000000 0 1;
#X obj 219 3088 r artworkId;
#X obj 143 3209 oscformat;
#X obj 220 3151 r artworkId;
#X msg 220 3176 set unity artwork \$1 color opacity;
#X obj 143 3179 r slider2;
#X text 42 2553 pressing pads activates or deactivates certain motifs in the paintings;
#X text 45 2444 idea: have a global handler registration/router for endpoints;
#X text 45 2479 lazy initialize monobehaviours;
#X text 45 2504 basically it could be like a broadcast message situation;
#X text 43 2525 IDEA: Make custom post-processing effects;
#X obj 12 1117 cnv 19 260 180 empty empty Random\ Generators 20 12 0 12 #feffc6 #404040 0;
#N canvas 227 812 621 638 randGen 0;
#X obj 60 40 inlet;
#X text 106 41 bang;
#X obj 213 41 inlet;
#X obj 60 117 random 1024;
#X obj 60 92 bng 19 250 50 0 empty empty empty 0 -10 0 12 #fcfcfc #000000 #000000;
#X obj 60 193 /;
#X msg 104 91 1024;
#X obj 406 31 loadbang;
#X obj 299 41 inlet;
#X text 207 19 range lo;
#X text 297 19 range hi;
#X obj 236 185 -;
#X obj 236 117 f;
#X obj 283 117 f;
#X obj 299 73 t b f;
#X obj 236 151 swap;
#X text 277 187 range;
#X obj 213 74 t f f b;
#X obj 60 264 +, f 4;
#X obj 60 237 *;
#X obj 60 325 outlet;
#X floatatom 70 297 5 0 0 0 - - - 0;
#X msg 406 67 0;
#X msg 438 67 5;
#X obj 104 66 loadbang;
#X connect 0 0 4 0;
#X connect 2 0 17 0;
#X connect 3 0 5 0;
#X connect 4 0 3 0;
#X connect 5 0 19 0;
#X connect 6 0 3 1;
#X connect 6 0 5 1;
#X connect 7 0 23 0;
#X connect 7 0 22 0;
#X connect 8 0 14 0;
#X connect 11 0 19 1;
#X connect 12 0 15 0;
#X connect 13 0 15 1;
#X connect 14 0 12 0;
#X connect 14 1 13 0;
#X connect 15 0 11 0;
#X connect 15 1 11 1;
#X connect 17 0 18 1;
#X connect 17 1 12 0;
#X connect 17 2 13 0;
#X connect 18 0 21 0;
#X connect 18 0 20 0;
#X connect 19 0 18 0;
#X connect 22 0 12 1;
#X connect 23 0 13 1;
#X connect 24 0 6 0;
#X restore 33 1241 pd randGen;
#X floatatom 66 1173 5 0 0 1 Range\ Lo - - 0;
#X floatatom 66 1201 5 0 0 1 Range\ Hi - - 0;
#X obj 33 1143 r audioTrig;
#X obj 33 1266 s rand0;
#X obj 815 15 vu 19 80 dbInput empty -1 -10 0 8 #404040 #000000 1 0;
#X obj 632 287 oscformat;
#X obj 632 309 s udp-client;
#X obj 639 170 r artworkId;
#X floatatom 632 139 5 0 0 1 knob6 knob6 - 0;
#X obj 752 287 oscformat;
#X obj 752 309 s udp-client;
#X obj 759 210 r artworkId;
#X floatatom 752 139 5 0 0 1 knob7 knob7 - 0;
#X obj 885 287 oscformat;
#X obj 885 309 s udp-client;
#X obj 892 210 r artworkId;
#X floatatom 885 139 5 0 0 1 knob8 knob8 - 0;
#X obj 288 916 cnv 19 160 230 empty empty Modwheel 20 12 0 12 #e0e0e0 #404040 0;
#X obj 306 1090 oscformat;
#X obj 306 1112 s udp-client;
#X obj 313 1013 r artworkId;
#X floatatom 306 942 5 0 0 1 mod mod - 0;
#X msg 313 1036 set unity artwork \$1 motion lerpReset, f 16;
#X floatatom 184 1146 5 0 0 2 randRange1 - randRange1 0;
#X obj 649 2818 hradio 25 1 0 10 artworkId empty empty 0 -10 0 12 #fcfcfc #000000 #000000 0;
#X obj 32 719 f;
#X obj 61 717 loadbang;
#X msg 39 742 set unity scene toggleArtwork, f 10;
#X floatatom 41 427 5 0 0 0 - - - 0;
#X obj 126 116 r rand0;
#X text 44 2349 we liked using bloom effect;
#X text 42 2597 logo rotate;
#X msg 639 233 set unity artwork \$1 color rotate, f 12;
#X obj 520 171 r artworkId;
#X msg 519 193 set unity artwork \$1 color opacity, f 13;
#X obj 887 41 tgl 25 0 audioToggle empty DSP 0 -10 0 12 #fcfcfc #000000 #000000 0 1;
#X obj 452 916 cnv 19 160 230 empty empty Pedal 20 12 0 12 #e0e0e0 #404040 0;
#X obj 291 1168 cnv 19 300 320 empty empty Logos 20 12 0 12 #ffc7c6 #404040 0;
#X obj 319 1448 s udp-client;
#X obj 319 1426 oscformat;
#X msg 348 1385 set unity logo disableLogo;
#X listbox 319 1293 20 0 0 0 - - - 0;
#X msg 349 1358 set unity logo enableLogo;
#X msg 319 1203 set StarGondola;
#X msg 339 1231 set Mario;
#X msg 348 1331 set unity logo toggleLogo;
#X obj 319 1268 t b a;
#X obj 472 942 r pedal;
#X obj 509 964 bng 19 250 50 0 empty empty empty 0 -10 0 12 #fcfcfc #000000 #000000;
#X obj 472 969 == 0;
#X obj 472 1090 oscformat;
#X obj 472 1112 s udp-client;
#X obj 479 1013 r artworkId;
#X msg 479 1036 set unity artwork \$1 motion lerpReset, f 16;
#X text 45 2393 current artworks on the screen need to be the ids \, so it's relative rather than absolute;
#X msg 759 233 set unity artwork \$1 motion randDist, f 15;
#X msg 892 233 set unity artwork \$1 motion randProb, f 16;
#X msg 992 476 set unity artwork \$1 motion lookAt, f 9;
#X obj 386 1556 cnv 19 600 320 empty empty Experimental 20 12 0 12 #ffc7c6 #404040 0;
#X obj 416 1768 oscformat;
#X obj 416 1840 s udp-client;
#X floatatom 416 1620 5 0 0 1 knob5 knob5 - 0;
#X obj 434 1659 r artworkId;
#X msg 434 1687 set unity artwork \$1 color opacityDelayed, f 16;
#X obj 635 1586 r opacity1;
#X obj 646 1609 r opacity2;
#X obj 646 1634 spigot;
#X obj 635 1659 spigot;
#X obj 698 1632 tgl 19 0 empty empty empty 0 -10 0 12 #fcfcfc #000000 #000000 0 1;
#X obj 698 1656 == 0;
#X text 627 1564 on: type2 off: type1;
#X obj 512 305 s udp-client;
#X msg 161 476 set unity camera kaliedoscope reflections, f 13;
#X msg 523 450 set unity camera echo feedback, f 13;
#X msg 402 479 set unity camera echo intensity, f 11;
#X msg 280 451 set unity camera kaliedoscope stretch, f 13;
#X msg 1237 996 MagiciansVision;
#X msg 1250 1071 NeueSpace;
#X obj 1243 1415 s udp-client;
#X msg 1218 920 Destruction;
#X obj 1243 1339 symbol prepend;
#X msg 1241 1022 MeetMeAtShasta;
#X msg 1225 945 Emperor;
#X obj 1243 1388 oscformat unity scene toggleArtwork;
#X obj 667 56 bng 25 250 50 0 clearScene empty Clear\ Scene 35 12 0 12 #c6feff #000000 #000000;
#X obj 667 24 bng 25 250 50 0 reload empty PANIC 35 12 0 12 #ff0400 #000000 #000000;
#X obj 613 1976 cnv 19 300 500 empty empty Utility 20 12 0 12 #feffc6 #404040 0;
#X obj 631 2059 s udp-client;
#X obj 631 2007 r clearScene;
#X obj 631 2033 oscformat unity scene clear;
#X obj 631 2149 s udp-client;
#X obj 631 2122 oscformat unity runtime reload;
#X obj 636 2315 oscformat;
#X obj 635 2340 s udp-client;
#X obj 636 2210 bng 19 250 50 0 empty empty empty 0 -10 0 12 #fcfcfc #000000 #000000;
#X msg 652 2244 set unity artwork 0 color fadeOut;
#X msg 654 2280 set unity artwork 0 color fadeIn;
#X obj 631 2096 r reload;
#X msg 1209 897 CandyLand;
#X msg 1192 851 BastionPebble, f 14;
#X msg 1257 1119 Painting2001, f 14;
#X obj 752 185 * 4;
#X floatatom 789 177 5 0 0 0 - - - 0;
#X listbox 32 48 20 0 0 2 ArtworkId artworkId - 16;
#X obj 1253 1363 s artworkId;
#X msg 1202 874 BeginningChoice;
#X msg 1232 971 Love;
#X msg 1245 1048 NecessaryStare;
#X msg 1254 1095 Nocturne;
#X msg 1260 1144 Prelude;
#X msg 1262 1170 SeeOfTeeth;
#X msg 1266 1195 SpaceDock;
#X msg 1268 1220 TheMiracle;
#X msg 1271 1245 Windows;
#X msg 1272 1271 World;
#X msg 1365 995 MagiciansVision;
#X msg 1378 1070 NeueSpace;
#X msg 1346 919 Destruction;
#X msg 1369 1021 MeetMeAtShasta;
#X msg 1353 944 Emperor;
#X msg 1337 896 CandyLand;
#X msg 1320 850 BastionPebble, f 14;
#X msg 1385 1118 Painting2001, f 14;
#X msg 1330 873 BeginningChoice;
#X msg 1360 970 Love;
#X msg 1373 1047 NecessaryStare;
#X msg 1382 1094 Nocturne;
#X msg 1388 1143 Prelude;
#X msg 1390 1169 SeeOfTeeth;
#X msg 1394 1194 SpaceDock;
#X msg 1396 1219 TheMiracle;
#X msg 1399 1244 Windows;
#X msg 1400 1270 World;
#X obj 1363 1342 s artworkId;
#X obj 1361 1317 symbol prepend;
#X obj 610 1773 s udp-client;
#X obj 610 1697 bng 19 250 50 0 empty empty empty 0 -10 0 12 #fcfcfc #000000 #000000;
#X obj 643 1697 r artworkId;
#X obj 610 1748 oscformat;
#X msg 643 1721 set unity artwork \$1 physics togglePhysics;
#X obj 718 1840 s udp-client;
#X obj 751 1764 r artworkId;
#X obj 718 1815 oscformat;
#X msg 751 1788 set unity artwork \$1 physics toggleGravity;
#X obj 721 1764 bng 19 250 50 0 empty empty empty 0 -10 0 12 #fcfcfc #000000 #000000;
#X msg 642 476 set unity camera bloom intensity, f 9;
#X msg 762 476 set unity camera bloom threshold, f 12;
#X msg 882 476 set unity camera abberation intensity, f 12;
#X obj 67 1507 s artworkId;
#X floatatom 486 37 5 0 0 2 inputGain setInputGain inputGain 0;
#N canvas 227 316 621 638 randGen 1;
#X obj 60 40 inlet;
#X text 106 41 bang;
#X obj 213 41 inlet;
#X obj 60 117 random 1024;
#X obj 60 92 bng 19 250 50 0 empty empty empty 0 -10 0 12 #fcfcfc #000000 #000000;
#X obj 60 193 /;
#X msg 104 91 1024;
#X obj 406 31 loadbang;
#X obj 299 41 inlet;
#X text 207 19 range lo;
#X text 297 19 range hi;
#X obj 236 185 -;
#X obj 236 117 f;
#X obj 283 117 f;
#X obj 299 73 t b f;
#X obj 236 151 swap;
#X text 277 187 range;
#X obj 213 74 t f f b;
#X obj 60 264 +, f 4;
#X obj 60 237 *;
#X obj 60 325 outlet;
#X floatatom 70 297 5 0 0 0 - - - 0;
#X msg 406 67 0;
#X msg 438 67 5;
#X obj 104 66 loadbang;
#X connect 0 0 4 0;
#X connect 2 0 17 0;
#X connect 3 0 5 0;
#X connect 4 0 3 0;
#X connect 5 0 19 0;
#X connect 6 0 3 1;
#X connect 6 0 5 1;
#X connect 7 0 23 0;
#X connect 7 0 22 0;
#X connect 8 0 14 0;
#X connect 11 0 19 1;
#X connect 12 0 15 0;
#X connect 13 0 15 1;
#X connect 14 0 12 0;
#X connect 14 1 13 0;
#X connect 15 0 11 0;
#X connect 15 1 11 1;
#X connect 17 0 18 1;
#X connect 17 1 12 0;
#X connect 17 2 13 0;
#X connect 18 0 21 0;
#X connect 18 0 20 0;
#X connect 19 0 18 0;
#X connect 22 0 12 1;
#X connect 23 0 13 1;
#X connect 24 0 6 0;
#X restore 1198 388 pd randGen;
#X floatatom 1297 319 5 0 0 0 - - - 0;
#X floatatom 1297 338 5 0 0 0 - - - 0;
#X obj 1183 466 s rand1;
#X obj 368 115 r rand1;
#X obj 627 1186 cnv 19 500 350 empty empty Logo 20 12 0 12 #e0e0e0 #404040 0;
#X obj 856 1214 symbol prepend;
#X obj 856 1236 oscformat unity logo toggleLogo;
#X msg 753 1265 StarGondola;
#X msg 754 1289 Mario, f 9;
#X obj 856 1259 s udp-client;
#X obj 651 1404 s udp-client;
#X obj 651 1380 oscformat unity logo reset;
#X obj 648 1351 bng 19 250 50 0 empty empty empty 0 -10 0 12 #fcfcfc #000000 #000000;
#X obj 749 1470 s udp-client;
#X obj 749 1445 oscformat unity logo scale;
#X obj 752 1417 hsl 162 19 0.1 3 0 0 empty empty empty -2 -10 0 12 #fcfcfc #000000 #000000 0 1;
#N canvas 234 234 450 300 toggleLogo 0;
#X obj 76 52 symbol prepend;
#X obj 76 74 oscformat unity logo toggleLogo;
#X obj 76 97 s udp-client;
#X obj 70 19 inlet;
#X connect 0 0 1 0;
#X connect 1 0 2 0;
#X connect 3 0 0 0;
#X restore 689 1340 pd toggleLogo;
#X obj 663 923 cnv 19 200 200 empty empty Camera 20 12 0 12 #e0e0e0 #404040 0;
#X obj 675 1080 s udp-client;
#X obj 674 1052 oscformat unity camera reset;
#X obj 674 1024 bng 19 250 50 0 empty empty empty 0 -10 0 12 #fcfcfc #000000 #000000;
#X obj 159 1448 r buttons;
#X obj 682 1217 r button9;
#X obj 754 1215 r button8;
#X obj 754 1239 sel 1;
#X obj 682 1243 sel 1;
#N canvas 156 156 450 300 audioTrigger 0;
#X obj 102 45 r~ audioInput;
#X obj 102 69 env~;
#X obj 102 95 >;
#X floatatom 172 103 5 0 0 0 - - - 0;
#X obj 101 122 == 1;
#X obj 101 146 sel 1;
#X obj 101 170 t b;
#X obj 258 66 inlet;
#X obj 101 194 outlet;
#X obj 158 192 outlet;
#X obj 175 134;
#X connect 0 0 1 0;
#X connect 1 0 2 0;
#X connect 2 0 4 0;
#X connect 3 0 2 1;
#X connect 4 0 5 0;
#X connect 5 0 6 0;
#X connect 6 0 8 0;
#X connect 7 0 3 0;
#X restore 1168 322 pd audioTrigger;
#X floatatom 1168 297 5 0 0 0 - - - 0;
#N canvas 227 812 621 638 randGen 0;
#X obj 60 40 inlet;
#X text 106 41 bang;
#X obj 213 41 inlet;
#X obj 60 117 random 1024;
#X obj 60 92 bng 19 250 50 0 empty empty empty 0 -10 0 12 #fcfcfc #000000 #000000;
#X obj 60 193 /;
#X msg 104 91 1024;
#X obj 406 31 loadbang;
#X obj 299 41 inlet;
#X text 207 19 range lo;
#X text 297 19 range hi;
#X obj 236 185 -;
#X obj 236 117 f;
#X obj 283 117 f;
#X obj 299 73 t b f;
#X obj 236 151 swap;
#X text 277 187 range;
#X obj 213 74 t f f b;
#X obj 60 264 +, f 4;
#X obj 60 237 *;
#X obj 60 325 outlet;
#X floatatom 70 297 5 0 0 0 - - - 0;
#X msg 406 67 0;
#X msg 438 67 5;
#X obj 104 66 loadbang;
#X connect 0 0 4 0;
#X connect 2 0 17 0;
#X connect 3 0 5 0;
#X connect 4 0 3 0;
#X connect 5 0 19 0;
#X connect 6 0 3 1;
#X connect 6 0 5 1;
#X connect 7 0 23 0;
#X connect 7 0 22 0;
#X connect 8 0 14 0;
#X connect 11 0 19 1;
#X connect 12 0 15 0;
#X connect 13 0 15 1;
#X connect 14 0 12 0;
#X connect 14 1 13 0;
#X connect 15 0 11 0;
#X connect 15 1 11 1;
#X connect 17 0 18 1;
#X connect 17 1 12 0;
#X connect 17 2 13 0;
#X connect 18 0 21 0;
#X connect 18 0 20 0;
#X connect 19 0 18 0;
#X connect 22 0 12 1;
#X connect 23 0 13 1;
#X connect 24 0 6 0;
#X restore 1364 452 pd randGen;
#X floatatom 1434 400 5 0 0 0 - - - 0;
#X floatatom 1436 423 5 0 0 0 - - - 0;
#N canvas 52 52 862 743 audioLine 0;
#X obj 159 62 env~;
#X obj 135 350 line;
#X obj 159 34 r~ audioInput;
#X obj 133 371 * 0.01;
#X obj 204 124 > 0.7;
#X floatatom 209 58 5 0 0 0 - - - 0;
#X obj 158 143 spigot;
#X floatatom 193 316 5 0 0 0 - - - 0;
#X obj 158 91 * 0.01;
#X obj 287 41 inlet;
#X obj 316 85 loadbang;
#X msg 313 117 0.7;
#X obj 138 397 outlet;
#X obj 401 44 inlet;
#X obj 465 53 inlet;
#X obj 326 205;
#X msg 135 322 \$1 \$2;
#X obj 97 225 pack \$1 \$2;
#X connect 0 0 8 0;
#X connect 1 0 3 0;
#X connect 2 0 0 0;
#X connect 3 0 12 0;
#X connect 4 0 6 1;
#X connect 4 0 7 0;
#X connect 5 0 4 1;
#X connect 6 0 17 0;
#X connect 8 0 6 0;
#X connect 8 0 4 0;
#X connect 9 0 4 1;
#X connect 10 0 11 0;
#X connect 11 0 4 1;
#X connect 13 0 3 1;
#X connect 14 0 17 1;
#X connect 16 0 1 0;
#X connect 17 0 16 0;
#X restore 1357 211 pd audioLine;
#X obj 1416 126 hsl 162 19 0 2 0 0 empty empty thresh -2 10 0 12 #fcfcfc #000000 #000000 0 1;
#X floatatom 1355 261 5 0 0 0 - - - 0;
#X obj 1419 152 hsl 162 19 0 1 0 0 empty empty mult -2 10 0 12 #fcfcfc #000000 #000000 0 1;
#X floatatom 1443 180 5 0 0 1 Milliseconds - - 0;
#X obj 1433 263 s audioLine1;
#X obj 1006 14 r audioLine1;
#X obj 843 1350 s udp-client;
#X obj 843 1325 oscformat unity logo rotateSpeed;
#X floatatom 843 1302 5 0 0 0 - - - 0;
#X obj 1145 321 bng 19 250 50 0 empty empty empty 0 -10 0 12 #fcfcfc #000000 #000000;
#X obj 1205 707 oscformat;
#X obj 1215 616 r artworkId;
#X obj 1205 728 s udp-client;
#X msg 1215 640 set unity camera kaliedoscope intensity, f 12;
#X obj 1205 591 tgl 19 0 empty empty empty 0 -10 0 12 #fcfcfc #000000 #000000 0 1;
#X obj 675 978 r pad;
#X obj 676 999 sel 7;
#X obj 1204 539 r button1;
#X obj 1204 563 sel 1;
#X obj 1491 641 s trig1;
#X obj 1527 662 s trig2;
#X obj 1557 685 s trig3;
#X obj 1593 706 s trig4;
#X obj 1512 529 r pad;
#X obj 1608 76 r trig1;
#N canvas 227 812 621 638 randGen 0;
#X obj 60 40 inlet;
#X text 106 41 bang;
#X obj 213 41 inlet;
#X obj 60 117 random 1024;
#X obj 60 92 bng 19 250 50 0 empty empty empty 0 -10 0 12 #fcfcfc #000000 #000000;
#X obj 60 193 /;
#X msg 104 91 1024;
#X obj 406 31 loadbang;
#X obj 299 41 inlet;
#X text 207 19 range lo;
#X text 297 19 range hi;
#X obj 236 185 -;
#X obj 236 117 f;
#X obj 283 117 f;
#X obj 299 73 t b f;
#X obj 236 151 swap;
#X text 277 187 range;
#X obj 213 74 t f f b;
#X obj 60 264 +, f 4;
#X obj 60 237 *;
#X obj 60 325 outlet;
#X floatatom 70 297 5 0 0 0 - - - 0;
#X msg 406 67 0;
#X msg 438 67 5;
#X obj 104 66 loadbang;
#X connect 0 0 4 0;
#X connect 2 0 17 0;
#X connect 3 0 5 0;
#X connect 4 0 3 0;
#X connect 5 0 19 0;
#X connect 6 0 3 1;
#X connect 6 0 5 1;
#X connect 7 0 23 0;
#X connect 7 0 22 0;
#X connect 8 0 14 0;
#X connect 11 0 19 1;
#X connect 12 0 15 0;
#X connect 13 0 15 1;
#X connect 14 0 12 0;
#X connect 14 1 13 0;
#X connect 15 0 11 0;
#X connect 15 1 11 1;
#X connect 17 0 18 1;
#X connect 17 1 12 0;
#X connect 17 2 13 0;
#X connect 18 0 21 0;
#X connect 18 0 20 0;
#X connect 19 0 18 0;
#X connect 22 0 12 1;
#X connect 23 0 13 1;
#X connect 24 0 6 0;
#X restore 1608 102 pd randGen;
#X floatatom 1672 51 5 0 0 0 - - - 0;
#X floatatom 1672 70 5 0 0 0 - - - 0;
#N canvas 227 812 621 638 randGen 0;
#X obj 60 40 inlet;
#X text 106 41 bang;
#X obj 213 41 inlet;
#X obj 60 117 random 1024;
#X obj 60 92 bng 19 250 50 0 empty empty empty 0 -10 0 12 #fcfcfc #000000 #000000;
#X obj 60 193 /;
#X msg 104 91 1024;
#X obj 406 31 loadbang;
#X obj 299 41 inlet;
#X text 207 19 range lo;
#X text 297 19 range hi;
#X obj 236 185 -;
#X obj 236 117 f;
#X obj 283 117 f;
#X obj 299 73 t b f;
#X obj 236 151 swap;
#X text 277 187 range;
#X obj 213 74 t f f b;
#X obj 60 264 +, f 4;
#X obj 60 237 *;
#X obj 60 325 outlet;
#X floatatom 70 297 5 0 0 0 - - - 0;
#X msg 406 67 0;
#X msg 438 67 5;
#X obj 104 66 loadbang;
#X connect 0 0 4 0;
#X connect 2 0 17 0;
#X connect 3 0 5 0;
#X connect 4 0 3 0;
#X connect 5 0 19 0;
#X connect 6 0 3 1;
#X connect 6 0 5 1;
#X connect 7 0 23 0;
#X connect 7 0 22 0;
#X connect 8 0 14 0;
#X connect 11 0 19 1;
#X connect 12 0 15 0;
#X connect 13 0 15 1;
#X connect 14 0 12 0;
#X connect 14 1 13 0;
#X connect 15 0 11 0;
#X connect 15 1 11 1;
#X connect 17 0 18 1;
#X connect 17 1 12 0;
#X connect 17 2 13 0;
#X connect 18 0 21 0;
#X connect 18 0 20 0;
#X connect 19 0 18 0;
#X connect 22 0 12 1;
#X connect 23 0 13 1;
#X connect 24 0 6 0;
#X restore 1614 205 pd randGen;
#X floatatom 1679 150 5 0 0 0 - - - 0;
#X floatatom 1679 169 5 0 0 0 - - - 0;
#N canvas 227 812 621 638 randGen 0;
#X obj 60 40 inlet;
#X text 106 41 bang;
#X obj 213 41 inlet;
#X obj 60 117 random 1024;
#X obj 60 92 bng 19 250 50 0 empty empty empty 0 -10 0 12 #fcfcfc #000000 #000000;
#X obj 60 193 /;
#X msg 104 91 1024;
#X obj 406 31 loadbang;
#X obj 299 41 inlet;
#X text 207 19 range lo;
#X text 297 19 range hi;
#X obj 236 185 -;
#X obj 236 117 f;
#X obj 283 117 f;
#X obj 299 73 t b f;
#X obj 236 151 swap;
#X text 277 187 range;
#X obj 213 74 t f f b;
#X obj 60 264 +, f 4;
#X obj 60 237 *;
#X obj 60 325 outlet;
#X floatatom 70 297 5 0 0 0 - - - 0;
#X msg 406 67 0;
#X msg 438 67 5;
#X obj 104 66 loadbang;
#X connect 0 0 4 0;
#X connect 2 0 17 0;
#X connect 3 0 5 0;
#X connect 4 0 3 0;
#X connect 5 0 19 0;
#X connect 6 0 3 1;
#X connect 6 0 5 1;
#X connect 7 0 23 0;
#X connect 7 0 22 0;
#X connect 8 0 14 0;
#X connect 11 0 19 1;
#X connect 12 0 15 0;
#X connect 13 0 15 1;
#X connect 14 0 12 0;
#X connect 14 1 13 0;
#X connect 15 0 11 0;
#X connect 15 1 11 1;
#X connect 17 0 18 1;
#X connect 17 1 12 0;
#X connect 17 2 13 0;
#X connect 18 0 21 0;
#X connect 18 0 20 0;
#X connect 19 0 18 0;
#X connect 22 0 12 1;
#X connect 23 0 13 1;
#X connect 24 0 6 0;
#X restore 1603 302 pd randGen;
#X floatatom 1668 252 5 0 0 0 - - - 0;
#X floatatom 1668 271 5 0 0 0 - - - 0;
#N canvas 227 812 621 638 randGen 0;
#X obj 60 40 inlet;
#X text 106 41 bang;
#X obj 213 41 inlet;
#X obj 60 117 random 1024;
#X obj 60 92 bng 19 250 50 0 empty empty empty 0 -10 0 12 #fcfcfc #000000 #000000;
#X obj 60 193 /;
#X msg 104 91 1024;
#X obj 406 31 loadbang;
#X obj 299 41 inlet;
#X text 207 19 range lo;
#X text 297 19 range hi;
#X obj 236 185 -;
#X obj 236 117 f;
#X obj 283 117 f;
#X obj 299 73 t b f;
#X obj 236 151 swap;
#X text 277 187 range;
#X obj 213 74 t f f b;
#X obj 60 264 +, f 4;
#X obj 60 237 *;
#X obj 60 325 outlet;
#X floatatom 70 297 5 0 0 0 - - - 0;
#X msg 406 67 0;
#X msg 438 67 5;
#X obj 104 66 loadbang;
#X connect 0 0 4 0;
#X connect 2 0 17 0;
#X connect 3 0 5 0;
#X connect 4 0 3 0;
#X connect 5 0 19 0;
#X connect 6 0 3 1;
#X connect 6 0 5 1;
#X connect 7 0 23 0;
#X connect 7 0 22 0;
#X connect 8 0 14 0;
#X connect 11 0 19 1;
#X connect 12 0 15 0;
#X connect 13 0 15 1;
#X connect 14 0 12 0;
#X connect 14 1 13 0;
#X connect 15 0 11 0;
#X connect 15 1 11 1;
#X connect 17 0 18 1;
#X connect 17 1 12 0;
#X connect 17 2 13 0;
#X connect 18 0 21 0;
#X connect 18 0 20 0;
#X connect 19 0 18 0;
#X connect 22 0 12 1;
#X connect 23 0 13 1;
#X connect 24 0 6 0;
#X restore 1601 390 pd randGen;
#X floatatom 1669 347 5 0 0 0 - - - 0;
#X floatatom 1669 366 5 0 0 0 - - - 0;
#X obj 1614 179 r trig2;
#X obj 1603 276 r trig3;
#X obj 1601 364 r trig4;
#X obj 1615 595 bng 19 250 50 0 empty empty empty 0 -10 0 12 #fcfcfc #000000 #000000;
#X obj 1513 557 route 5 6 7 8;
#X obj 737 108 r audioLine1;
#X obj 62 185 r rand1;
#X obj 28 1930 midi/oxygen61-midi;
#X obj 1092 104 artworks;
#X obj 1164 28 notein;
#X floatatom 1197 95 5 0 0 0 - - - 0;
#X floatatom 1236 65 5 0 0 0 - - - 0;
#X floatatom 580 687 5 0 0 0 - - - 0;
#X obj 536 723 bng 19 250 50 0 empty empty empty 0 -10 0 12 #fcfcfc #000000 #000000;
#X obj 512 783 tgl 19 0 empty empty empty 0 -10 0 12 #fcfcfc #000000 #000000 0 1;
#X obj 545 747 f;
#X obj 579 744 + 1;
#X obj 1430 490 s rand2;
#X obj 60 906 r rand2;
#N canvas 156 654 450 300 audioTrigger 1;
#X obj 102 45 r~ audioInput;
#X obj 102 69 env~;
#X obj 102 95 >;
#X floatatom 172 103 5 0 0 0 - - - 0;
#X obj 101 122 == 1;
#X obj 101 146 sel 1;
#X obj 101 170 t b;
#X obj 258 66 inlet;
#X obj 101 194 outlet;
#X obj 158 192 outlet;
#X obj 175 134;
#X connect 0 0 1 0;
#X connect 1 0 2 0;
#X connect 2 0 4 0;
#X connect 3 0 2 1;
#X connect 4 0 5 0;
#X connect 5 0 6 0;
#X connect 6 0 8 0;
#X connect 7 0 3 0;
#X restore 1398 353 pd audioTrigger;
#X floatatom 1398 328 5 0 0 0 - - - 0;
#X obj 1362 397 bng 19 250 50 0 empty empty empty 0 -10 0 12 #fcfcfc #000000 #000000;
#X floatatom 1348 529 5 0 0 0 - - - 0;
#X obj 1359 491 int;
#X obj 845 789 bng 19 250 50 0 empty empty empty 0 -10 0 12 #fcfcfc #000000 #000000;
#X msg 839 844 1;
#N canvas 227 316 621 638 randGen 1;
#X obj 60 40 inlet;
#X text 106 41 bang;
#X obj 213 41 inlet;
#X obj 60 117 random 1024;
#X obj 60 92 bng 19 250 50 0 empty empty empty 0 -10 0 12 #fcfcfc #000000 #000000;
#X obj 60 193 /;
#X msg 104 91 1024;
#X obj 406 31 loadbang;
#X obj 299 41 inlet;
#X text 207 19 range lo;
#X text 297 19 range hi;
#X obj 236 185 -;
#X obj 236 117 f;
#X obj 283 117 f;
#X obj 299 73 t b f;
#X obj 236 151 swap;
#X text 277 187 range;
#X obj 213 74 t f f b;
#X obj 60 264 +, f 4;
#X obj 60 237 *;
#X obj 60 325 outlet;
#X floatatom 70 297 5 0 0 0 - - - 0;
#X msg 406 67 0;
#X msg 438 67 5;
#X obj 104 66 loadbang;
#X connect 0 0 4 0;
#X connect 2 0 17 0;
#X connect 3 0 5 0;
#X connect 4 0 3 0;
#X connect 5 0 19 0;
#X connect 6 0 3 1;
#X connect 6 0 5 1;
#X connect 7 0 23 0;
#X connect 7 0 22 0;
#X connect 8 0 14 0;
#X connect 11 0 19 1;
#X connect 12 0 15 0;
#X connect 13 0 15 1;
#X connect 14 0 12 0;
#X connect 14 1 13 0;
#X connect 15 0 11 0;
#X connect 15 1 11 1;
#X connect 17 0 18 1;
#X connect 17 1 12 0;
#X connect 17 2 13 0;
#X connect 18 0 21 0;
#X connect 18 0 20 0;
#X connect 19 0 18 0;
#X connect 22 0 12 1;
#X connect 23 0 13 1;
#X connect 24 0 6 0;
#X restore 1546 887 pd randGen;
#X floatatom 1616 835 5 0 0 0 - - - 0;
#X floatatom 1618 858 5 0 0 0 - - - 0;
#N canvas 156 654 450 300 audioTrigger 1;
#X obj 102 45 r~ audioInput;
#X obj 102 69 env~;
#X obj 102 95 >;
#X floatatom 172 103 5 0 0 0 - - - 0;
#X obj 101 122 == 1;
#X obj 101 146 sel 1;
#X obj 101 170 t b;
#X obj 258 66 inlet;
#X obj 101 194 outlet;
#X obj 158 192 outlet;
#X obj 175 134;
#X connect 0 0 1 0;
#X connect 1 0 2 0;
#X connect 2 0 4 0;
#X connect 3 0 2 1;
#X connect 4 0 5 0;
#X connect 5 0 6 0;
#X connect 6 0 8 0;
#X connect 7 0 3 0;
#X restore 1580 788 pd audioTrigger;
#X floatatom 1580 763 5 0 0 0 - - - 0;
#X obj 1544 832 bng 19 250 50 0 empty empty empty 0 -10 0 12 #fcfcfc #000000 #000000;
#X obj 1655 1095 s rand3;
#X obj 955 93 r rand3;
#X obj 1677 845 f;
#X obj 1713 844 + 1;
#X obj 1689 890 % 2;
#X obj 1676 821 del 50;
#X obj 1464 788 s rand3;
#X obj 874 107 r rand3;
#X obj 1772 919 del;
#X obj 1773 948;
#X msg 1706 1006 0;
#X obj 1771 713;
#X floatatom 1818 863 5 0 0 0 - - - 0;
#X obj 1646 1052 f;
#X floatatom 1695 1052 5 0 0 0 - - - 0;
#X floatatom 1737 784 5 0 0 0 - - - 0;
#X connect 4 0 5 0;
#X connect 6 0 4 0;
#X connect 7 0 17 0;
#X connect 9 0 10 0;
#X connect 11 0 9 0;
#X connect 16 0 128 0;
#X connect 17 0 4 0;
#X connect 18 0 11 0;
#X connect 19 0 20 0;
#X connect 20 0 15 0;
#X connect 22 0 24 0;
#X connect 23 0 25 0;
#X connect 25 0 22 0;
#X connect 28 0 27 0;
#X connect 29 0 31 0;
#X connect 29 0 33 0;
#X connect 30 0 29 0;
#X connect 31 0 34 0;
#X connect 33 0 35 0;
#X connect 35 0 32 0;
#X connect 36 0 35 1;
#X connect 38 0 6 0;
#X connect 40 0 6 1;
#X connect 41 0 42 0;
#X connect 43 0 41 0;
#X connect 44 0 47 0;
#X connect 45 0 43 0;
#X connect 46 0 43 1;
#X connect 47 0 41 0;
#X connect 48 0 49 0;
#X connect 50 0 48 0;
#X connect 51 0 54 0;
#X connect 52 0 50 0;
#X connect 53 0 50 1;
#X connect 54 0 48 0;
#X connect 55 0 56 0;
#X connect 57 0 55 0;
#X connect 58 0 61 0;
#X connect 59 0 57 0;
#X connect 60 0 57 1;
#X connect 61 0 55 0;
#X connect 62 0 256 0;
#X connect 63 0 62 0;
#X connect 65 0 69 1;
#X connect 66 0 69 2;
#X connect 67 0 69 1;
#X connect 68 0 69 0;
#X connect 71 0 96 0;
#X connect 72 0 73 0;
#X connect 74 0 97 0;
#X connect 75 0 76 0;
#X connect 77 0 98 0;
#X connect 78 0 79 0;
#X connect 80 0 99 0;
#X connect 81 0 82 0;
#X connect 83 0 100 0;
#X connect 83 0 417 0;
#X connect 84 0 101 0;
#X connect 86 0 89 0;
#X connect 87 0 88 0;
#X connect 89 0 87 0;
#X connect 90 0 94 0;
#X connect 91 0 92 0;
#X connect 92 0 93 0;
#X connect 94 0 92 0;
#X connect 95 0 9 0;
#X connect 96 0 210 0;
#X connect 97 0 75 0;
#X connect 98 0 78 0;
#X connect 99 0 81 0;
#X connect 100 0 418 0;
#X connect 100 0 419 0;
#X connect 102 0 75 0;
#X connect 103 0 78 0;
#X connect 104 0 81 0;
#X connect 105 0 87 0;
#X connect 108 0 111 0;
#X connect 110 0 112 0;
#X connect 111 0 107 0;
#X connect 112 0 109 0;
#X connect 115 0 117 0;
#X connect 117 0 116 0;
#X connect 118 0 117 1;
#X connect 119 0 120 0;
#X connect 120 0 121 0;
#X connect 122 0 91 0;
#X connect 123 0 105 0;
#X connect 124 0 104 0;
#X connect 125 0 103 0;
#X connect 126 0 102 0;
#X connect 127 0 210 1;
#X connect 128 0 15 0;
#X connect 129 0 128 1;
#X connect 135 0 137 0;
#X connect 136 0 257 0;
#X connect 138 0 140 0;
#X connect 139 0 260 0;
#X connect 141 0 142 0;
#X connect 142 0 144 0;
#X connect 143 0 259 0;
#X connect 145 0 147 0;
#X connect 146 0 258 0;
#X connect 148 0 150 0;
#X connect 149 0 330 0;
#X connect 151 0 153 0;
#X connect 152 0 331 0;
#X connect 154 0 156 0;
#X connect 155 0 332 0;
#X connect 157 0 22 0;
#X connect 157 0 213 0;
#X connect 158 0 135 0;
#X connect 159 0 138 0;
#X connect 160 0 145 0;
#X connect 161 0 148 0;
#X connect 162 0 151 0;
#X connect 163 0 154 0;
#X connect 164 0 166 0;
#X connect 165 0 242 0;
#X connect 167 0 164 0;
#X connect 168 0 171 0;
#X connect 169 0 168 0;
#X connect 170 0 168 0;
#X connect 172 0 171 1;
#X connect 173 0 169 0;
#X connect 174 0 171 0;
#X connect 175 0 176 0;
#X connect 176 0 174 0;
#X connect 177 0 174 0;
#X connect 184 0 188 0;
#X connect 185 0 184 1;
#X connect 186 0 184 2;
#X connect 187 0 184 0;
#X connect 190 0 191 0;
#X connect 192 0 217 0;
#X connect 193 0 190 0;
#X connect 194 0 195 0;
#X connect 196 0 240 0;
#X connect 197 0 286 0;
#X connect 198 0 199 0;
#X connect 200 0 241 0;
#X connect 201 0 198 0;
#X connect 203 0 204 0;
#X connect 205 0 207 0;
#X connect 206 0 203 0;
#X connect 207 0 203 0;
#X connect 210 0 72 0;
#X connect 211 0 212 0;
#X connect 212 0 72 0;
#X connect 217 0 190 0;
#X connect 218 0 219 0;
#X connect 219 0 62 0;
#X connect 224 0 223 0;
#X connect 225 0 224 0;
#X connect 226 0 224 0;
#X connect 227 0 224 0;
#X connect 228 0 231 0;
#X connect 229 0 231 0;
#X connect 230 0 224 0;
#X connect 231 0 226 0;
#X connect 231 1 226 0;
#X connect 232 0 233 0;
#X connect 232 0 234 0;
#X connect 234 0 235 0;
#X connect 235 0 236 0;
#X connect 237 0 238 0;
#X connect 238 0 235 0;
#X connect 240 0 194 0;
#X connect 241 0 198 0;
#X connect 242 0 164 0;
#X connect 246 0 244 0;
#X connect 247 0 248 0;
#X connect 248 0 244 0;
#X connect 249 0 252 0;
#X connect 250 0 251 0;
#X connect 253 0 254 0;
#X connect 253 0 252 1;
#X connect 254 0 251 1;
#X connect 257 0 135 0;
#X connect 258 0 145 0;
#X connect 259 0 142 0;
#X connect 260 0 138 0;
#X connect 261 0 265 0;
#X connect 262 0 265 0;
#X connect 264 0 265 0;
#X connect 265 0 268 0;
#X connect 265 0 289 0;
#X connect 266 0 265 0;
#X connect 267 0 265 0;
#X connect 268 0 263 0;
#X connect 273 0 274 0;
#X connect 274 0 272 0;
#X connect 276 0 275 0;
#X connect 277 0 278 0;
#X connect 279 0 277 0;
#X connect 280 0 277 0;
#X connect 281 0 277 0;
#X connect 282 0 276 0;
#X connect 283 0 265 0;
#X connect 284 0 265 0;
#X connect 285 0 265 0;
#X connect 286 0 194 0;
#X connect 287 0 286 1;
#X connect 290 0 265 0;
#X connect 291 0 265 0;
#X connect 292 0 265 0;
#X connect 293 0 265 0;
#X connect 294 0 265 0;
#X connect 295 0 265 0;
#X connect 296 0 265 0;
#X connect 297 0 265 0;
#X connect 298 0 265 0;
#X connect 299 0 265 0;
#X connect 300 0 319 0;
#X connect 301 0 319 0;
#X connect 302 0 319 0;
#X connect 303 0 319 0;
#X connect 304 0 319 0;
#X connect 305 0 319 0;
#X connect 306 0 319 0;
#X connect 307 0 319 0;
#X connect 308 0 319 0;
#X connect 309 0 319 0;
#X connect 310 0 319 0;
#X connect 311 0 319 0;
#X connect 312 0 319 0;
#X connect 313 0 319 0;
#X connect 314 0 319 0;
#X connect 315 0 319 0;
#X connect 316 0 319 0;
#X connect 317 0 319 0;
#X connect 319 0 318 0;
#X connect 321 0 323 0;
#X connect 322 0 324 0;
#X connect 323 0 320 0;
#X connect 324 0 323 0;
#X connect 326 0 328 0;
#X connect 327 0 325 0;
#X connect 328 0 327 0;
#X connect 329 0 327 0;
#X connect 330 0 148 0;
#X connect 331 0 151 0;
#X connect 332 0 154 0;
#X connect 336 0 335 1;
#X connect 337 0 335 2;
#X connect 339 0 55 0;
#X connect 341 0 342 0;
#X connect 342 0 345 0;
#X connect 343 0 352 0;
#X connect 344 0 352 0;
#X connect 347 0 346 0;
#X connect 348 0 347 0;
#X connect 350 0 349 0;
#X connect 351 0 350 0;
#X connect 355 0 354 0;
#X connect 356 0 355 0;
#X connect 358 0 361 0;
#X connect 359 0 360 0;
#X connect 360 0 343 0;
#X connect 361 0 344 0;
#X connect 362 0 335 0;
#X connect 362 0 377 0;
#X connect 363 0 362 0;
#X connect 364 0 428 0;
#X connect 365 0 364 1;
#X connect 366 0 364 2;
#X connect 367 0 369 0;
#X connect 367 0 372 0;
#X connect 368 0 367 0;
#X connect 370 0 367 1;
#X connect 371 0 367 2;
#X connect 375 0 374 0;
#X connect 376 0 375 0;
#X connect 378 0 380 0;
#X connect 379 0 381 0;
#X connect 381 0 378 0;
#X connect 382 0 378 0;
#X connect 383 0 384 0;
#X connect 384 0 356 0;
#X connect 385 0 386 0;
#X connect 386 0 382 0;
#X connect 391 0 409 0;
#X connect 392 0 393 0;
#X connect 394 0 393 1;
#X connect 395 0 393 2;
#X connect 397 0 396 1;
#X connect 398 0 396 2;
#X connect 400 0 399 1;
#X connect 401 0 399 2;
#X connect 403 0 402 1;
#X connect 404 0 402 2;
#X connect 405 0 396 0;
#X connect 406 0 399 0;
#X connect 407 0 402 0;
#X connect 409 0 387 0;
#X connect 409 1 388 0;
#X connect 409 2 389 0;
#X connect 409 2 408 0;
#X connect 409 3 390 0;
#X connect 411 0 6 0;
#X connect 414 0 415 0;
#X connect 414 2 416 0;
#X connect 420 0 421 0;
#X connect 423 0 9 0;
#X connect 424 0 364 0;
#X connect 424 0 426 0;
#X connect 425 0 424 0;
#X connect 428 0 427 0;
#X connect 428 0 422 0;
#X connect 429 0 92 0;
#X connect 430 0 92 0;
#X connect 432 0 431 1;
#X connect 433 0 431 2;
#X connect 434 0 431 0;
#X connect 434 0 436 0;
#X connect 434 0 442 0;
#X connect 435 0 434 0;
#X connect 438 0 286 0;
#X connect 439 0 440 0;
#X connect 439 0 441 0;
#X connect 440 0 439 1;
#X connect 441 0 445 0;
#X connect 441 0 450 0;
#X connect 442 0 439 0;
#X connect 444 0 198 0;
#X connect 445 0 447 0;
#X connect 447 0 450 0;
#X connect 449 0 445 1;
#X connect 450 0 437 0;
#X connect 450 0 451 0;
#X connect 452 0 442 1;
