#N canvas 1157 -6 1920 997 12;
#X obj 1487 10 cnv 19 400 200 empty empty UDP\ Client 20 12 0 12 #dfdfdf #404040 0;
#X msg 1668 94 192.168.1.205;
#X listbox 1668 69 20 0 0 0 - - - 0;
#X msg 1667 146 8000;
#X msg 1668 118 localhost;
#X obj 1508 73 r udp-client;
#X obj 52 30 cnv 19 230 210 empty empty Endpoint 20 12 0 12 #c6ffc7 #404040 0;
#X floatatom 68 67 5 0 0 0 - - - 0;
#X obj 68 186 oscformat;
#X obj 68 208 s udp-client;
#X obj 68 164 * 1;
#X floatatom 99 135 5 0 0 0 - - - 0;
#X obj 1659 27 midi/oxygen61-midi;
#X obj 111 67 r slider1;
#X obj 51 252 cnv 19 230 210 empty empty Endpoint 20 12 0 12 #c6ffc7 #404040 0;
#X floatatom 67 316 5 0 0 0 - - - 0;
#X obj 67 408 oscformat;
#X obj 67 430 s udp-client;
#X obj 67 386 * 1;
#X floatatom 98 377 5 0 0 0 - - - 0;
#X obj 49 480 cnv 19 230 210 empty empty Endpoint 20 12 0 12 #c6ffc7 #404040 0;
#X floatatom 65 526 5 0 0 0 - - - 0;
#X obj 65 635 oscformat;
#X obj 65 657 s udp-client;
#X obj 65 613 * 1;
#X floatatom 96 584 5 0 0 0 - - - 0;
#X obj 67 292 r slider2;
#X obj 66 504 r slider3;
#X obj 1508 181 network/udp-client;
#X obj 1506 460 cnv 19 230 210 empty empty Endpoint 20 12 0 12 #c6ffc7 #404040 0;
#X floatatom 1522 497 5 0 0 0 - - - 0;
#X obj 1522 616 oscformat;
#X obj 1522 638 s udp-client;
#X obj 1522 594 * 1;
#X floatatom 1553 565 5 0 0 0 - - - 0;
#X obj 1565 497 r button1;
#X msg 1535 532 set unity controller motif physics togglePhysics;
#X obj 1622 580 bng 19 250 50 0 empty empty empty 0 -10 0 12 #fcfcfc #000000 #000000;
#X obj 1505 228 notein;
#X floatatom 1438 291 5 0 0 0 - - - 0;
#X floatatom 1485 291 5 0 0 0 - - - 0;
#X obj 52 703 cnv 19 230 210 empty empty Endpoint 20 12 0 12 #c6ffc7 #404040 0;
#X floatatom 59 737 5 0 0 0 - - - 0;
#X obj 59 856 oscformat;
#X obj 59 878 s udp-client;
#X obj 59 834 * 1;
#X floatatom 90 805 5 0 0 0 - - - 0;
#X obj 106 735 r mod;
#X msg 81 102 set unity controller \$1 motion sinX;
#X msg 76 350 set unity controller \$1 motion cosY;
#X msg 78 551 set unity controller \$1 motif sinZ;
#X msg 73 772 set unity controller \$1 motion lerpCenter;
#X obj 1258 39 loadbang;
#X msg 1258 65 0;
#X obj 192 512 r artworkId;
#X obj 183 317 r artworkId;
#X obj 185 68 r artworkId;
#X obj 1258 93 s artworkId;
#X obj 155 737 r artworkId;
#X obj 1641 501 r artworkId;
#X obj 374 43 cnv 19 260 200 empty empty Endpoint 20 12 0 12 #ffc7c6 #404040 0;
#X obj 390 186 oscformat;
#X obj 390 208 s udp-client;
#X msg 398 157 set unity artwork \$1 midi note;
#X floatatom 1537 277 5 0 0 0 - - - 0;
#X obj 443 133 s artworkId;
#X text 532 130 set artwork id;
#X obj 1344 15 cnv 19 126 50 empty empty empty 20 12 0 12 #ff8300 #404040 0;
#X floatatom 1352 32 5 0 0 1 Artwork\ ID artworkId - 0;
#X obj 702 114 print;
#N canvas 180 739 792 776 note 0;
#X obj 116 111 notein;
#X floatatom 325 148 5 0 0 0 - - - 0;
#X floatatom 365 147 5 0 0 0 - - - 0;
#X obj 283 302 > 0;
#X obj 210 341 spigot;
#X obj 210 299 pack f f;
#X obj 269 235 / 127;
#X obj 399 630 outlet;
#X text 6 203 separate out pads;
#X obj 286 432 spigot;
#X obj 286 475 outlet;
#X obj 170 344 == 0;
#X obj 153 304 < 43;
#X obj 119 404 spigot;
#X obj 32 363 print pad;
#X msg 428 429 0;
#X msg 443 451 1;
#X msg 455 478 2;
#X msg 470 500 3;
#X msg 487 522 4;
#X msg 502 544 5;
#X msg 514 571 6;
#X msg 529 593 7;
#X obj 429 397 route 40 41 42 43 36 37 38 39;
#X connect 0 0 1 0;
#X connect 0 0 5 0;
#X connect 0 0 12 0;
#X connect 0 1 2 0;
#X connect 0 1 6 0;
#X connect 0 1 3 0;
#X connect 3 0 4 1;
#X connect 4 0 9 0;
#X connect 4 0 13 0;
#X connect 5 0 4 0;
#X connect 6 0 5 1;
#X connect 9 0 10 0;
#X connect 11 0 9 1;
#X connect 12 0 11 0;
#X connect 12 0 13 1;
#X connect 13 0 14 0;
#X connect 13 0 23 0;
#X connect 15 0 7 0;
#X connect 16 0 7 0;
#X connect 17 0 7 0;
#X connect 18 0 7 0;
#X connect 19 0 7 0;
#X connect 20 0 7 0;
#X connect 21 0 7 0;
#X connect 22 0 7 0;
#X connect 23 0 15 0;
#X connect 23 1 16 0;
#X connect 23 2 17 0;
#X connect 23 3 18 0;
#X connect 23 4 19 0;
#X connect 23 5 20 0;
#X connect 23 6 21 0;
#X connect 23 7 22 0;
#X restore 390 74 pd note;
#X obj 372 260 cnv 19 250 160 empty empty Artwork\ Toggles 20 12 0 12 #ffe3c6 #404040 0;
#X obj 388 367 oscformat;
#X obj 388 389 s udp-client;
#X obj 404 318 loadbang;
#X msg 404 340 set unity scene toggleArtwork;
#N canvas -34 1154 860 869 artworkToggles 1;
#X obj 360 68 r button1;
#X obj 428 408 loadbang;
#X msg 428 430 set unity scene toggleArtwork;
#X obj 385 89 r button2;
#X obj 414 113 r button3;
#X obj 439 134 r button4;
#X obj 465 158 r button5;
#X obj 490 179 r button6;
#X obj 520 204 r button7;
#X obj 544 234 r button8;
#X obj 572 260 r button9;
#X obj 182 516 outlet;
#X obj 148 168 sel 1;
#X obj 253 178 sel 1;
#X obj 296 196 sel 1;
#X obj 338 213 sel 1;
#X obj 378 234 sel 1;
#X obj 416 258 sel 1;
#X obj 457 277 sel 1;
#X obj 497 297 sel 1;
#X msg 182 215 0, f 2;
#X msg 207 236 1, f 2;
#X msg 261 281 3, f 2;
#X msg 236 260 2, f 2;
#X msg 287 305 4, f 2;
#X msg 312 326 5, f 2;
#X msg 341 350 6, f 2;
#X msg 366 381 7, f 2;
#X msg 394 407 8, f 2;
#X obj 537 318 sel 1;
#X obj 196 103 bng 19 250 50 0 empty empty empty 0 -10 0 12 #fcfcfc #000000 #000000;
#X obj 227 105 bng 19 250 50 0 empty empty empty 0 -10 0 12 #fcfcfc #000000 #000000;
#X connect 0 0 30 0;
#X connect 0 0 12 0;
#X connect 1 0 2 0;
#X connect 2 0 11 0;
#X connect 3 0 13 0;
#X connect 3 0 31 0;
#X connect 4 0 14 0;
#X connect 5 0 15 0;
#X connect 6 0 16 0;
#X connect 7 0 17 0;
#X connect 8 0 18 0;
#X connect 9 0 19 0;
#X connect 10 0 29 0;
#X connect 12 0 20 0;
#X connect 13 0 21 0;
#X connect 14 0 23 0;
#X connect 15 0 22 0;
#X connect 16 0 24 0;
#X connect 17 0 25 0;
#X connect 18 0 26 0;
#X connect 19 0 27 0;
#X connect 20 0 11 0;
#X connect 21 0 11 0;
#X connect 22 0 11 0;
#X connect 23 0 11 0;
#X connect 24 0 11 0;
#X connect 25 0 11 0;
#X connect 26 0 11 0;
#X connect 27 0 11 0;
#X connect 28 0 11 0;
#X connect 29 0 28 0;
#X restore 388 293 pd artworkToggles;
#X floatatom 333 373 5 0 0 0 - - - 0;
#X obj 330 339 bng 19 250 50 0 empty empty empty 0 -10 0 12 #fcfcfc #000000 #000000;
#X connect 1 0 28 1;
#X connect 3 0 28 2;
#X connect 4 0 28 1;
#X connect 5 0 28 0;
#X connect 7 0 10 0;
#X connect 8 0 9 0;
#X connect 10 0 8 0;
#X connect 11 0 10 1;
#X connect 13 0 7 0;
#X connect 15 0 18 0;
#X connect 16 0 17 0;
#X connect 18 0 16 0;
#X connect 19 0 18 1;
#X connect 21 0 24 0;
#X connect 22 0 23 0;
#X connect 24 0 22 0;
#X connect 25 0 24 1;
#X connect 26 0 15 0;
#X connect 27 0 21 0;
#X connect 30 0 33 0;
#X connect 31 0 32 0;
#X connect 33 0 31 0;
#X connect 34 0 33 1;
#X connect 35 0 30 0;
#X connect 36 0 31 0;
#X connect 37 0 31 0;
#X connect 38 0 39 0;
#X connect 38 1 40 0;
#X connect 38 2 64 0;
#X connect 42 0 45 0;
#X connect 43 0 44 0;
#X connect 45 0 43 0;
#X connect 46 0 45 1;
#X connect 47 0 42 0;
#X connect 48 0 8 0;
#X connect 49 0 16 0;
#X connect 50 0 22 0;
#X connect 51 0 43 0;
#X connect 52 0 53 0;
#X connect 53 0 57 0;
#X connect 54 0 50 0;
#X connect 55 0 49 0;
#X connect 56 0 48 0;
#X connect 58 0 51 0;
#X connect 59 0 36 0;
#X connect 61 0 62 0;
#X connect 63 0 61 0;
#X connect 70 0 61 0;
#X connect 70 1 65 0;
#X connect 70 1 63 0;
#X connect 72 0 73 0;
#X connect 74 0 75 0;
#X connect 75 0 72 0;
#X connect 76 0 72 0;
#X connect 76 0 77 0;
#X connect 76 0 78 0;
