#N canvas -188 -13 1080 1837 12;
#X obj -2 -2 cnv 19 1800 5000 empty empty empty 20 12 0 12 #bbbbbb #404040 0;
#X floatatom 50 182 5 0 0 0 - motionMult - 0;
#X floatatom 60 192 5 0 0 0 - motionMult - 0;
#X obj 12 113 cnv 19 1000 230 empty empty Motion 20 12 0 12 #c6ffc7 #404040 0;
#X obj 32 287 oscformat;
#X obj 32 309 s udp-client;
#X obj 32 185 * 1;
#X obj 39 210 r artworkId;
#X obj 11 916 cnv 19 260 180 empty empty Keys 20 12 0 12 #ffc7c6 #404040 0;
#X obj 29 1030 oscformat;
#X obj 29 1052 s udp-client;
#X msg 37 1005 set unity artwork \$1 midi note;
#X obj 12 12 cnv 19 260 70 empty empty empty 20 12 0 12 #ffe3c6 #404040 0;
#X floatatom 20 29 5 0 0 1 Artwork\ ID artworkId - 24;
#X obj 13 1327 cnv 19 260 250 empty empty Artwork\ Toggles 20 12 0 12 #ffe3c6 #404040 0;
#X obj 31 1539 oscformat;
#N canvas 371 498 667 741 artworkToggles 0;
#X obj 360 68 r button1;
#X obj 428 408 loadbang;
#X msg 428 430 set unity scene toggleArtwork;
#X obj 385 89 r button2;
#X obj 414 113 r button3;
#X obj 439 134 r button4;
#X obj 465 158 r button5;
#X obj 490 179 r button6;
#X obj 520 204 r button7;
#X obj 544 234 r button8;
#X obj 572 260 r button9;
#X obj 148 168 sel 1;
#X obj 253 178 sel 1;
#X obj 296 196 sel 1;
#X obj 338 213 sel 1;
#X obj 378 234 sel 1;
#X obj 416 258 sel 1;
#X obj 457 277 sel 1;
#X obj 497 297 sel 1;
#X msg 182 215 0, f 2;
#X msg 207 236 1, f 2;
#X msg 261 281 3, f 2;
#X msg 236 260 2, f 2;
#X msg 287 305 4, f 2;
#X msg 312 326 5, f 2;
#X msg 341 350 6, f 2;
#X msg 366 381 7, f 2;
#X msg 394 407 8, f 2;
#X obj 537 318 sel 1;
#X obj 196 103 bng 19 250 50 0 empty empty empty 0 -10 0 12 #fcfcfc #000000 #000000;
#X obj 227 105 bng 19 250 50 0 empty empty empty 0 -10 0 12 #fcfcfc #000000 #000000;
#X obj 182 516 outlet;
#X obj 238 516 s artworkId;
#X connect 0 0 29 0;
#X connect 0 0 11 0;
#X connect 1 0 2 0;
#X connect 2 0 31 0;
#X connect 3 0 12 0;
#X connect 3 0 30 0;
#X connect 4 0 13 0;
#X connect 5 0 14 0;
#X connect 6 0 15 0;
#X connect 7 0 16 0;
#X connect 8 0 17 0;
#X connect 9 0 18 0;
#X connect 10 0 28 0;
#X connect 11 0 19 0;
#X connect 12 0 20 0;
#X connect 13 0 22 0;
#X connect 14 0 21 0;
#X connect 15 0 23 0;
#X connect 16 0 24 0;
#X connect 17 0 25 0;
#X connect 18 0 26 0;
#X connect 19 0 31 0;
#X connect 19 0 32 0;
#X connect 20 0 31 0;
#X connect 20 0 32 0;
#X connect 21 0 31 0;
#X connect 21 0 32 0;
#X connect 22 0 31 0;
#X connect 22 0 32 0;
#X connect 23 0 31 0;
#X connect 23 0 32 0;
#X connect 24 0 31 0;
#X connect 24 0 32 0;
#X connect 25 0 31 0;
#X connect 25 0 32 0;
#X connect 26 0 31 0;
#X connect 26 0 32 0;
#X connect 27 0 31 0;
#X connect 27 0 32 0;
#X connect 28 0 27 0;
#X restore 31 1363 pd artworkToggles;
#X msg 39 234 set unity artwork \$1 motion sinX, f 11;
#X obj 37 982 r artworkId;
#X obj 41 1440 loadbang;
#X msg 41 1462 set unity scene toggleArtwork, f 15;
#X obj 12 374 cnv 19 1100 230 empty empty Sliders 20 12 0 12 #e3c6ff #404040 0;
#X obj 32 543 oscformat;
#X obj 42 452 r artworkId;
#X obj 32 564 s udp-client;
#X msg 42 476 set unity camera kaliedoscope intensity, f 12;
#X obj 14 1596 cnv 19 300 230 empty empty Audio 20 12 0 12 #c6feff #404040 0;
#X msg 34 1670 \; pd dsp \$1 \;;
#X obj 34 1646 tgl 19 0 empty empty empty 0 -10 0 12 #fcfcfc #000000 #000000 0 1;
#N canvas 168 407 921 687 audioIn 0;
#X obj 91 7 adc~, f 13;
#X obj 130 183 > 10;
#X obj 91 213 spigot;
#X obj 91 268 - 10;
#X obj 91 303 outlet;
#X obj 199 7 inlet;
#X obj 212 76 loadbang;
#X msg 212 99 10;
#X obj 91 43 +~;
#X obj 296 219 s dbInput;
#X floatatom 35 141 5 0 0 0 - - - 0;
#X obj 199 131 t f f;
#X obj 91 153 - 100;
#X floatatom 38 256 5 0 0 0 - - - 0;
#N canvas 329 161 625 417 vu 0;
#X obj 59 129 env~ 1024;
#X obj 58 74 inlet~;
#X obj 59 287 - 100;
#X obj 59 361 outlet;
#X connect 0 0 2 0;
#X connect 1 0 0 0;
#X connect 2 0 3 0;
#X restore 90 72 pd vu;
#X connect 0 0 8 0;
#X connect 0 1 8 1;
#X connect 1 0 2 1;
#X connect 2 0 3 0;
#X connect 3 0 4 0;
#X connect 5 0 11 0;
#X connect 6 0 7 0;
#X connect 7 0 11 0;
#X connect 8 0 14 0;
#X connect 11 0 1 1;
#X connect 11 1 3 1;
#X connect 12 0 1 0;
#X connect 12 0 2 0;
#X connect 12 0 13 0;
#X connect 14 0 12 0;
#X connect 14 0 9 0;
#X restore 144 1658 pd audioIn;
#X floatatom 144 1626 5 0 0 1 thresh\ db audioThreshDb - 0;
#X floatatom 154 1685 5 0 0 0 - - - 0;
#X obj 144 1789 s audioTrig;
#X obj 144 1740 t b;
#X obj 154 1710 s audioEnv;
#X obj 144 1764 spigot;
#X obj 183 1738 tgl 19 0 empty enabAudioTrig empty 0 -10 0 12 #fcfcfc #000000 #000000 0 1;
#X obj 291 12 cnv 19 500 70 empty empty empty 20 12 0 12 #ffe3c6 #404040 0;
#X floatatom 32 139 5 0 0 1 knob1 knob1 - 0;
#X floatatom 308 40 5 0 0 2 motionMult setMotionMult motionMult 0;
#X floatatom 50 161 5 0 0 0 - motionMult - 0;
#X obj 152 287 oscformat;
#X obj 152 309 s udp-client;
#X obj 152 185 * 1;
#X obj 159 210 r artworkId;
#X floatatom 152 139 5 0 0 1 knob2 knob2 - 0;
#X floatatom 170 161 5 0 0 0 - motionMult - 0;
#X msg 159 233 set unity artwork \$1 motion cosY, f 11;
#X obj 272 287 oscformat;
#X obj 272 309 s udp-client;
#X obj 272 185 * 1;
#X obj 279 210 r artworkId;
#X floatatom 272 139 5 0 0 1 knob3 knob3 - 0;
#X floatatom 290 161 5 0 0 0 - motionMult - 0;
#X msg 279 233 set unity artwork \$1 motion sinZ, f 11;
#X obj 392 287 oscformat;
#X obj 392 309 s udp-client;
#X obj 392 185 * 1;
#X obj 399 210 r artworkId;
#X floatatom 392 139 5 0 0 1 knob4 knob4 - 0;
#X floatatom 410 161 5 0 0 0 - motionMult - 0;
#X msg 399 233 set unity artwork \$1 motion range, f 12;
#X obj 512 287 oscformat;
#X obj 512 309 s udp-client;
#X obj 512 185 * 1;
#X obj 519 210 r artworkId;
#X floatatom 512 139 5 0 0 1 knob5 knob5 - 0;
#X floatatom 530 161 5 0 0 0 - motionMult - 0;
#X msg 519 233 set unity artwork \$1 motion speed, f 12;
#X obj 14 1976 cnv 19 200 150 empty empty empty 20 12 0 12 #e0e0e0 #404040 0;
#X msg 36 2018 192.168.1.205;
#X msg 145 2018 8000, f 5;
#X msg 37 2043 localhost;
#X obj 27 1988 r udp-client;
#X obj 27 2096 network/udp-client, f 24;
#X obj 12 645 cnv 19 1000 230 empty empty Pads 20 12 0 12 #ffe3c6 #404040 0;
#X obj 32 671 r pad;
#X obj 32 814 oscformat;
#X obj 32 836 s udp-client;
#X obj 152 671 r pad;
#X obj 152 814 oscformat;
#X obj 152 836 s udp-client;
#X obj 272 671 r pad;
#X obj 272 814 oscformat;
#X obj 272 836 s udp-client;
#X obj 392 671 r pad;
#X obj 392 813 oscformat;
#X obj 392 836 s udp-client;
#X obj 512 671 r pad;
#X obj 632 671 r pad;
#X obj 632 836 s udp-client;
#X obj 752 671 r pad;
#X obj 752 814 oscformat;
#X obj 752 836 s udp-client;
#X obj 752 693 sel 6;
#X obj 872 671 r pad;
#X msg 882 738 set unity artwork \$1 motion lookAtCamera, f 12;
#X obj 872 814 oscformat;
#X obj 872 836 s udp-client;
#X obj 872 693 sel 7;
#X obj 29 956 r keys;
#X obj 32 693 sel 0;
#X obj 152 693 sel 1;
#X obj 272 693 sel 2;
#X obj 392 693 sel 3;
#X obj 512 693 sel 4;
#X obj 632 693 sel 5;
#X msg 162 738 set unity artwork \$1 color fadeOut, f 12;
#X msg 282 738 set unity artwork \$1, f 12;
#X msg 402 738 set unity artwork \$1, f 12;
#X msg 761 738 set unity artwork \$1, f 12;
#X obj 20 2654 cnv 19 500 800 empty empty JUNK 20 12 0 12 #e0e0e0 #404040 0;
#X obj 227 2827 oscformat;
#X obj 227 2776 r artworkId;
#X obj 41 2768 oscformat;
#X obj 41 2719 r artworkId;
#X msg 227 2800 set unity artwork \$1 color fadeIn;
#X msg 41 2744 set unity artwork \$1 color fadeOut;
#X obj 263 2892 s udp-client;
#X obj 19 2145 cnv 19 500 500 empty empty IDEAS 20 12 0 12 #e0e0e0 #404040 0;
#N canvas 27 102 958 1146 sliderLerp 0;
#X obj 282 809 oscformat;
#X obj 181 582 * 1;
#X obj 299 98 r slider1;
#X obj 299 130 t f b;
#X obj 348 162 t f b;
#X obj 400 188 t f b;
#X obj 451 213 t f b;
#X obj 504 244 t f b;
#X obj 556 270 t f b;
#X obj 607 295 t f b;
#X obj 400 157 r slider3;
#X obj 349 130 r slider2;
#X obj 451 181 r slider4;
#X obj 504 211 r slider5;
#X obj 556 238 r slider6;
#X obj 607 263 r slider7;
#X obj 657 320 t f b;
#X obj 657 288 r slider8;
#X obj 704 343 t f b;
#X obj 704 311 r slider8;
#X obj 304 835 outlet;
#X msg 359 533 set unity artwork 0 motion lerpReset;
#X msg 376 561 set unity artwork 1 motion lerpReset;
#X msg 405 585 set unity artwork 2 motion lerpReset;
#X msg 427 609 set unity artwork 3 motion lerpReset;
#X msg 444 637 set unity artwork 4 motion lerpReset;
#X msg 466 661 set unity artwork 5 motion lerpReset;
#X msg 480 688 set unity artwork 6 motion lerpReset;
#X msg 502 712 set unity artwork 7 motion lerpReset;
#X msg 518 739 set unity artwork 8 motion lerpReset;
#X connect 0 0 20 0;
#X connect 1 0 0 0;
#X connect 2 0 3 0;
#X connect 3 0 1 0;
#X connect 3 1 21 0;
#X connect 4 0 1 0;
#X connect 4 1 22 0;
#X connect 5 0 1 0;
#X connect 5 1 23 0;
#X connect 6 0 1 0;
#X connect 6 1 24 0;
#X connect 7 0 1 0;
#X connect 7 1 25 0;
#X connect 8 0 1 0;
#X connect 8 1 26 0;
#X connect 9 0 1 0;
#X connect 9 1 27 0;
#X connect 10 0 5 0;
#X connect 11 0 4 0;
#X connect 12 0 6 0;
#X connect 13 0 7 0;
#X connect 14 0 8 0;
#X connect 15 0 9 0;
#X connect 16 0 1 0;
#X connect 16 1 28 0;
#X connect 17 0 16 0;
#X connect 18 0 1 0;
#X connect 18 1 29 0;
#X connect 19 0 18 0;
#X connect 21 0 0 0;
#X connect 22 0 0 0;
#X connect 23 0 0 0;
#X connect 24 0 0 0;
#X connect 25 0 0 0;
#X connect 26 0 0 0;
#X connect 27 0 0 0;
#X connect 28 0 0 0;
#X connect 29 0 0 0;
#X restore 46 2208 pd sliderLerp;
#X obj 46 2324 s udp-client;
#X obj 46 2292 spigot;
#X obj 85 2257 tgl 19 0 empty empty Sliders\ Lerp 0 -10 0 12 #fcfcfc #000000 #000000 0 1;
#X obj 42 2893 loadbang;
#X msg 42 2915 set unity scene toggleArtwork;
#X obj 42 2950 oscformat;
#X obj 883 715 r artworkId;
#X obj 762 715 r artworkId;
#X obj 402 715 r artworkId;
#X obj 282 715 r artworkId;
#X obj 162 715 r artworkId;
#X obj 61 693 r artworkId;
#X obj 31 1413 spigot;
#X obj 70 1389 tgl 19 0 empty empty Enable\ Toggles 23 10 0 12 #fcfcfc #000000 #000000 0 1;
#X obj 512 837 s enabAudioTrig;
#X obj 512 813 tgl 19 0 empty empty empty 0 -10 0 12 #fcfcfc #000000 #000000 0 1;
#X floatatom 388 40 5 0 0 2 audioThreshDb setAudioThreshDb audioThreshDb 0;
#X obj 34 1622 loadbang;
#X obj 14 1886 cnv 19 200 76 empty empty empty 20 12 0 12 #e0e0e0 #404040 0;
#N canvas 1106 34 1099 730 init 0;
#X obj 168 16 loadbang;
#X msg 89 238 0, f 4;
#X obj 89 261 s artworkId;
#X obj 181 260 s setMotionMult;
#X msg 181 235 1;
#X obj 300 260 s setAudioThreshDb;
#X msg 300 237 20;
#X connect 0 0 1 0;
#X connect 0 0 4 0;
#X connect 0 0 6 0;
#X connect 1 0 2 0;
#X connect 4 0 3 0;
#X connect 6 0 5 0;
#X restore 27 1903 pd init;
#X obj 27 1930 midi/oxygen61-midi;
#X obj 152 543 oscformat;
#X obj 162 453 r artworkId;
#X msg 162 476 set unity camera echo intensity, f 9;
#X obj 152 564 s udp-client;
#X obj 272 543 oscformat;
#X obj 282 452 r artworkId;
#X obj 272 564 s udp-client;
#X msg 282 476 set unity camera kaliedoscope intensity, f 12;
#X obj 392 400 r slider4;
#X obj 392 543 oscformat;
#X obj 402 453 r artworkId;
#X msg 402 476 set unity camera echo intensity, f 9;
#X obj 392 564 s udp-client;
#X obj 512 543 oscformat;
#X obj 522 452 r artworkId;
#X obj 512 564 s udp-client;
#X msg 522 476 set unity camera kaliedoscope intensity, f 12;
#X obj 632 543 oscformat;
#X obj 642 453 r artworkId;
#X msg 642 476 set unity camera echo intensity, f 9;
#X obj 632 564 s udp-client;
#X obj 752 543 oscformat;
#X obj 762 452 r artworkId;
#X obj 752 564 s udp-client;
#X msg 762 476 set unity camera kaliedoscope intensity, f 12;
#X obj 872 543 oscformat;
#X obj 882 453 r artworkId;
#X msg 882 476 set unity camera echo intensity, f 9;
#X obj 872 564 s udp-client;
#X obj 32 400 r slider1;
#X obj 152 400 r slider2;
#X obj 272 400 r slider3;
#X obj 512 400 r slider5;
#X obj 632 400 r slider6;
#X obj 752 400 r slider7;
#X obj 872 400 r slider8;
#X obj 982 543 oscformat;
#X obj 992 453 r artworkId;
#X msg 992 476 set unity camera echo intensity, f 9;
#X obj 982 564 s udp-client;
#X obj 982 400 r slider9;
#X obj 142 3148 oscformat;
#X msg 219 3111 set unity artwork \$1 color rotate;
#X obj 142 3113 r slider1;
#X obj 106 3310 spigot;
#X obj 145 3283 tgl 19 0 empty empty Normal\ Sliders 0 -10 0 12 #fcfcfc #000000 #000000 0 1;
#X obj 219 3088 r artworkId;
#X obj 143 3209 oscformat;
#X obj 220 3151 r artworkId;
#X msg 220 3176 set unity artwork \$1 color opacity;
#X obj 143 3179 r slider2;
#X text 42 2553 pressing pads activates or deactivates certain motifs in the paintings;
#X text 45 2444 idea: have a global handler registration/router for endpoints;
#X text 45 2479 lazy initialize monobehaviours;
#X text 45 2504 basically it could be like a broadcast message situation;
#X text 43 2525 IDEA: Make custom post-processing effects;
#X obj 12 1117 cnv 19 260 180 empty empty Random\ Generators 20 12 0 12 #feffc6 #404040 0;
#N canvas 271 893 621 638 randGen 0;
#X obj 60 40 inlet;
#X text 106 41 bang;
#X obj 213 41 inlet;
#X obj 60 117 random 1024;
#X obj 60 92 bng 19 250 50 0 empty empty empty 0 -10 0 12 #fcfcfc #000000 #000000;
#X obj 60 193 /;
#X msg 104 91 1024;
#X obj 406 31 loadbang;
#X obj 299 41 inlet;
#X text 207 19 range lo;
#X text 297 19 range hi;
#X obj 236 185 -;
#X obj 236 117 f;
#X obj 283 117 f;
#X obj 299 73 t b f;
#X obj 236 151 swap;
#X text 277 187 range;
#X obj 213 74 t f f b;
#X obj 60 264 +, f 4;
#X obj 60 237 *;
#X obj 60 325 outlet;
#X floatatom 70 297 5 0 0 0 - - - 0;
#X msg 406 67 0;
#X msg 438 67 5;
#X obj 104 66 loadbang;
#X connect 0 0 4 0;
#X connect 2 0 17 0;
#X connect 3 0 5 0;
#X connect 4 0 3 0;
#X connect 5 0 19 0;
#X connect 6 0 3 1;
#X connect 6 0 5 1;
#X connect 7 0 23 0;
#X connect 7 0 22 0;
#X connect 8 0 14 0;
#X connect 11 0 19 1;
#X connect 12 0 15 0;
#X connect 13 0 15 1;
#X connect 14 0 12 0;
#X connect 14 1 13 0;
#X connect 15 0 11 0;
#X connect 15 1 11 1;
#X connect 17 0 18 1;
#X connect 17 1 12 0;
#X connect 17 2 13 0;
#X connect 18 0 21 0;
#X connect 18 0 20 0;
#X connect 19 0 18 0;
#X connect 22 0 12 1;
#X connect 23 0 13 1;
#X connect 24 0 6 0;
#X restore 33 1241 pd randGen;
#X floatatom 66 1173 5 0 0 1 Range\ Lo - - 0;
#X floatatom 66 1201 5 0 0 1 Range\ Hi - - 0;
#X obj 33 1143 r audioTrig;
#X obj 33 1266 s rand0;
#X obj 815 15 vu 19 80 dbInput empty -1 -10 0 8 #404040 #000000 1 0;
#X obj 632 287 oscformat;
#X obj 632 309 s udp-client;
#X obj 632 185 * 1;
#X obj 639 210 r artworkId;
#X floatatom 632 139 5 0 0 1 knob6 knob6 - 0;
#X floatatom 650 161 5 0 0 0 - motionMult - 0;
#X msg 639 233 set unity artwork \$1 motion range, f 12;
#X obj 752 287 oscformat;
#X obj 752 309 s udp-client;
#X obj 752 185 * 1;
#X obj 759 210 r artworkId;
#X floatatom 752 139 5 0 0 1 knob7 knob7 - 0;
#X floatatom 770 161 5 0 0 0 - motionMult - 0;
#X msg 759 233 set unity artwork \$1 motion speed, f 12;
#X obj 872 287 oscformat;
#X obj 872 309 s udp-client;
#X obj 872 185 * 1;
#X obj 879 210 r artworkId;
#X floatatom 872 139 5 0 0 1 knob8 knob8 - 0;
#X floatatom 890 161 5 0 0 0 - motionMult - 0;
#X msg 879 233 set unity artwork \$1 motion speed, f 12;
#X obj 288 916 cnv 19 160 230 empty empty Modwheel 20 12 0 12 #e0e0e0 #404040 0;
#X obj 306 1090 oscformat;
#X obj 306 1112 s udp-client;
#X obj 313 1013 r artworkId;
#X floatatom 306 942 5 0 0 1 mod mod - 0;
#X msg 313 1036 set unity artwork \$1 motion lerpReset, f 16;
#X floatatom 184 1146 5 0 0 2 randRange1 - randRange1 0;
#X obj 19 67 hradio 25 1 0 10 artworkId empty empty 0 -10 0 12 #fcfcfc #000000 #000000 0;
#X obj 32 719 f;
#X obj 61 717 loadbang;
#X msg 39 742 set unity scene toggleArtwork, f 10;
#X floatatom 41 427 5 0 0 0 - - - 0;
#X obj 622 1416 s udp-client;
#X obj 622 1394 oscformat;
#X msg 680 1241 set unity logo disableLogo;
#X listbox 621 1150 20 0 0 0 - - - 0;
#X obj 111 110 r rand0;
#X floatatom 181 116 5 0 0 0 - - - 0;
#X msg 681 1214 set unity logo enableLogo;
#X msg 620 1041 set StarGondola;
#X obj 621 1111 bng 19 250 50 0 empty empty empty 0 -10 0 12 #fcfcfc #000000 #000000;
#X msg 620 1066 set Mario;
#X msg 680 1187 set unity logo toggleLogo;
#X text 360 1237 we liked using bloom effect;
#X text 361 1265 logo rotate;
#X connect 4 0 5 0;
#X connect 6 0 4 0;
#X connect 7 0 17 0;
#X connect 9 0 10 0;
#X connect 11 0 9 0;
#X connect 16 0 133 0;
#X connect 17 0 4 0;
#X connect 18 0 11 0;
#X connect 19 0 20 0;
#X connect 20 0 15 0;
#X connect 22 0 24 0;
#X connect 23 0 25 0;
#X connect 25 0 22 0;
#X connect 28 0 27 0;
#X connect 29 0 31 0;
#X connect 29 0 33 0;
#X connect 30 0 29 0;
#X connect 31 0 34 0;
#X connect 33 0 35 0;
#X connect 35 0 32 0;
#X connect 36 0 35 1;
#X connect 38 0 6 0;
#X connect 40 0 6 1;
#X connect 41 0 42 0;
#X connect 43 0 41 0;
#X connect 44 0 47 0;
#X connect 45 0 43 0;
#X connect 46 0 43 1;
#X connect 47 0 41 0;
#X connect 48 0 49 0;
#X connect 50 0 48 0;
#X connect 51 0 54 0;
#X connect 52 0 50 0;
#X connect 53 0 50 1;
#X connect 54 0 48 0;
#X connect 55 0 56 0;
#X connect 57 0 55 0;
#X connect 58 0 61 0;
#X connect 59 0 57 0;
#X connect 60 0 57 1;
#X connect 61 0 55 0;
#X connect 62 0 63 0;
#X connect 64 0 62 0;
#X connect 65 0 68 0;
#X connect 66 0 64 0;
#X connect 67 0 64 1;
#X connect 68 0 62 0;
#X connect 70 0 74 1;
#X connect 71 0 74 2;
#X connect 72 0 74 1;
#X connect 73 0 74 0;
#X connect 76 0 101 0;
#X connect 77 0 78 0;
#X connect 79 0 102 0;
#X connect 80 0 81 0;
#X connect 82 0 103 0;
#X connect 83 0 84 0;
#X connect 85 0 104 0;
#X connect 86 0 87 0;
#X connect 88 0 105 0;
#X connect 89 0 106 0;
#X connect 91 0 94 0;
#X connect 92 0 93 0;
#X connect 94 0 92 0;
#X connect 95 0 99 0;
#X connect 96 0 97 0;
#X connect 97 0 98 0;
#X connect 99 0 97 0;
#X connect 100 0 9 0;
#X connect 101 0 234 0;
#X connect 102 0 80 0;
#X connect 103 0 83 0;
#X connect 104 0 86 0;
#X connect 105 0 136 0;
#X connect 107 0 80 0;
#X connect 108 0 83 0;
#X connect 109 0 86 0;
#X connect 110 0 92 0;
#X connect 113 0 116 0;
#X connect 115 0 117 0;
#X connect 116 0 112 0;
#X connect 117 0 114 0;
#X connect 120 0 122 0;
#X connect 122 0 121 0;
#X connect 123 0 122 1;
#X connect 124 0 125 0;
#X connect 125 0 126 0;
#X connect 127 0 96 0;
#X connect 128 0 110 0;
#X connect 129 0 109 0;
#X connect 130 0 108 0;
#X connect 131 0 107 0;
#X connect 132 0 234 1;
#X connect 133 0 15 0;
#X connect 134 0 133 1;
#X connect 136 0 135 0;
#X connect 138 0 28 0;
#X connect 142 0 145 0;
#X connect 143 0 144 0;
#X connect 144 0 142 0;
#X connect 146 0 148 0;
#X connect 147 0 149 0;
#X connect 149 0 146 0;
#X connect 150 0 151 0;
#X connect 151 0 154 0;
#X connect 152 0 153 0;
#X connect 153 0 151 0;
#X connect 155 0 157 0;
#X connect 156 0 158 0;
#X connect 158 0 155 0;
#X connect 159 0 162 0;
#X connect 160 0 161 0;
#X connect 161 0 159 0;
#X connect 163 0 165 0;
#X connect 164 0 166 0;
#X connect 166 0 163 0;
#X connect 167 0 170 0;
#X connect 168 0 169 0;
#X connect 169 0 167 0;
#X connect 171 0 22 0;
#X connect 171 0 237 0;
#X connect 172 0 142 0;
#X connect 173 0 146 0;
#X connect 174 0 155 0;
#X connect 175 0 159 0;
#X connect 176 0 163 0;
#X connect 177 0 167 0;
#X connect 178 0 181 0;
#X connect 179 0 180 0;
#X connect 180 0 178 0;
#X connect 182 0 178 0;
#X connect 183 0 186 0;
#X connect 184 0 183 0;
#X connect 185 0 183 0;
#X connect 187 0 186 1;
#X connect 188 0 184 0;
#X connect 189 0 186 0;
#X connect 190 0 191 0;
#X connect 191 0 189 0;
#X connect 192 0 189 0;
#X connect 199 0 203 0;
#X connect 200 0 199 1;
#X connect 201 0 199 2;
#X connect 202 0 199 0;
#X connect 205 0 206 0;
#X connect 207 0 205 0;
#X connect 208 0 211 0;
#X connect 209 0 207 0;
#X connect 210 0 207 1;
#X connect 211 0 205 0;
#X connect 212 0 213 0;
#X connect 214 0 212 0;
#X connect 215 0 218 0;
#X connect 216 0 214 0;
#X connect 217 0 214 1;
#X connect 218 0 212 0;
#X connect 219 0 220 0;
#X connect 221 0 219 0;
#X connect 222 0 225 0;
#X connect 223 0 221 0;
#X connect 224 0 221 1;
#X connect 225 0 219 0;
#X connect 227 0 228 0;
#X connect 229 0 231 0;
#X connect 230 0 227 0;
#X connect 231 0 227 0;
#X connect 234 0 77 0;
#X connect 235 0 236 0;
#X connect 236 0 77 0;
#X connect 239 0 238 0;
#X connect 240 0 239 0;
#X connect 241 0 239 0;
#X connect 242 0 43 0;
#X connect 242 0 243 0;
#X connect 244 0 239 0;
#X connect 245 0 241 0;
#X connect 245 0 246 0;
#X connect 246 0 241 0;
#X connect 247 0 241 0;
#X connect 247 0 246 0;
#X connect 248 0 239 0;
