#N canvas -26 -8 1080 1837 12;
#X obj -2 -2 cnv 19 1800 5000 empty empty empty 20 12 0 12 #bbbbbb #404040 0;
#X floatatom 70 182 5 0 0 0 - motionMult - 0;
#X floatatom 80 192 5 0 0 0 - motionMult - 0;
#X msg 198 2519 192.168.1.205;
#X listbox 198 2494 20 0 0 0 - - - 0;
#X msg 197 2571 8000;
#X msg 198 2543 localhost;
#X obj 38 2498 r udp-client;
#X obj 32 113 cnv 19 800 230 empty empty Motion 20 12 0 12 #c6ffc7 #404040 0;
#X obj 52 287 oscformat;
#X obj 52 309 s udp-client;
#X obj 52 185 * 1;
#X obj 189 2452 midi/oxygen61-midi;
#X obj 38 2606 network/udp-client;
#X obj 59 210 r artworkId;
#X obj 32 796 cnv 19 260 180 empty empty Note\ In 20 12 0 12 #ffc7c6 #404040 0;
#X obj 49 920 oscformat;
#X obj 49 942 s udp-client;
#X msg 57 895 set unity artwork \$1 midi note;
#X obj 32 12 cnv 19 260 70 empty empty empty 20 12 0 12 #ffe3c6 #404040 0;
#X floatatom 40 29 5 0 0 1 Artwork\ ID artworkId - 24;
#N canvas 1716 174 792 776 note 0;
#X obj 116 111 notein;
#X floatatom 325 148 5 0 0 0 - - - 0;
#X floatatom 365 147 5 0 0 0 - - - 0;
#X obj 283 302 > 0;
#X obj 210 341 spigot;
#X obj 210 299 pack f f;
#X obj 269 235 / 127;
#X obj 399 630 outlet;
#X text 6 203 separate out pads;
#X obj 286 432 spigot;
#X obj 286 475 outlet;
#X obj 170 344 == 0;
#X obj 153 304 < 43;
#X obj 119 404 spigot;
#X obj 103 508 print pad;
#X msg 428 429 0;
#X msg 443 451 1;
#X msg 455 478 2;
#X msg 470 500 3;
#X msg 487 522 4;
#X msg 502 544 5;
#X msg 514 571 6;
#X msg 529 593 7;
#X obj 429 397 route 40 41 42 43 36 37 38 39;
#X connect 0 0 1 0;
#X connect 0 0 5 0;
#X connect 0 0 12 0;
#X connect 0 1 2 0;
#X connect 0 1 6 0;
#X connect 0 1 3 0;
#X connect 3 0 4 1;
#X connect 4 0 9 0;
#X connect 4 0 13 0;
#X connect 5 0 4 0;
#X connect 6 0 5 1;
#X connect 9 0 10 0;
#X connect 11 0 9 1;
#X connect 12 0 11 0;
#X connect 12 0 13 1;
#X connect 13 0 14 0;
#X connect 13 0 23 0;
#X connect 15 0 7 0;
#X connect 16 0 7 0;
#X connect 17 0 7 0;
#X connect 18 0 7 0;
#X connect 19 0 7 0;
#X connect 20 0 7 0;
#X connect 21 0 7 0;
#X connect 22 0 7 0;
#X connect 23 0 15 0;
#X connect 23 1 16 0;
#X connect 23 2 17 0;
#X connect 23 3 18 0;
#X connect 23 4 19 0;
#X connect 23 5 20 0;
#X connect 23 6 21 0;
#X connect 23 7 22 0;
#X restore 49 822 pd note;
#X obj 93 1538 cnv 19 250 160 empty empty Artwork\ Toggles 20 12 0 12 #ffe3c6 #404040 0;
#X obj 109 1685 oscformat;
#X obj 557 1089 loadbang;
#X msg 557 1111 set unity scene toggleArtwork;
#N canvas 27 102 958 1146 sliderLerp 0;
#X obj 282 809 oscformat;
#X obj 181 582 * 1;
#X obj 299 98 r slider1;
#X obj 299 130 t f b;
#X obj 348 162 t f b;
#X obj 400 188 t f b;
#X obj 451 213 t f b;
#X obj 504 244 t f b;
#X obj 556 270 t f b;
#X obj 607 295 t f b;
#X obj 400 157 r slider3;
#X obj 349 130 r slider2;
#X obj 451 181 r slider4;
#X obj 504 211 r slider5;
#X obj 556 238 r slider6;
#X obj 607 263 r slider7;
#X obj 657 320 t f b;
#X obj 657 288 r slider8;
#X obj 704 343 t f b;
#X obj 704 311 r slider8;
#X obj 304 835 outlet;
#X msg 359 533 set unity artwork 0 motion lerpReset;
#X msg 376 561 set unity artwork 1 motion lerpReset;
#X msg 405 585 set unity artwork 2 motion lerpReset;
#X msg 427 609 set unity artwork 3 motion lerpReset;
#X msg 444 637 set unity artwork 4 motion lerpReset;
#X msg 466 661 set unity artwork 5 motion lerpReset;
#X msg 480 688 set unity artwork 6 motion lerpReset;
#X msg 502 712 set unity artwork 7 motion lerpReset;
#X msg 518 739 set unity artwork 8 motion lerpReset;
#X connect 0 0 20 0;
#X connect 1 0 0 0;
#X connect 2 0 3 0;
#X connect 3 0 1 0;
#X connect 3 1 21 0;
#X connect 4 0 1 0;
#X connect 4 1 22 0;
#X connect 5 0 1 0;
#X connect 5 1 23 0;
#X connect 6 0 1 0;
#X connect 6 1 24 0;
#X connect 7 0 1 0;
#X connect 7 1 25 0;
#X connect 8 0 1 0;
#X connect 8 1 26 0;
#X connect 9 0 1 0;
#X connect 9 1 27 0;
#X connect 10 0 5 0;
#X connect 11 0 4 0;
#X connect 12 0 6 0;
#X connect 13 0 7 0;
#X connect 14 0 8 0;
#X connect 15 0 9 0;
#X connect 16 0 1 0;
#X connect 16 1 28 0;
#X connect 17 0 16 0;
#X connect 18 0 1 0;
#X connect 18 1 29 0;
#X connect 19 0 18 0;
#X connect 21 0 0 0;
#X connect 22 0 0 0;
#X connect 23 0 0 0;
#X connect 24 0 0 0;
#X connect 25 0 0 0;
#X connect 26 0 0 0;
#X connect 27 0 0 0;
#X connect 28 0 0 0;
#X connect 29 0 0 0;
#X restore 1395 1456 pd sliderLerp;
#X obj 1395 1572 s udp-client;
#N canvas 74 637 667 741 artworkToggles 0;
#X obj 360 68 r button1;
#X obj 428 408 loadbang;
#X msg 428 430 set unity scene toggleArtwork;
#X obj 385 89 r button2;
#X obj 414 113 r button3;
#X obj 439 134 r button4;
#X obj 465 158 r button5;
#X obj 490 179 r button6;
#X obj 520 204 r button7;
#X obj 544 234 r button8;
#X obj 572 260 r button9;
#X obj 148 168 sel 1;
#X obj 253 178 sel 1;
#X obj 296 196 sel 1;
#X obj 338 213 sel 1;
#X obj 378 234 sel 1;
#X obj 416 258 sel 1;
#X obj 457 277 sel 1;
#X obj 497 297 sel 1;
#X msg 182 215 0, f 2;
#X msg 207 236 1, f 2;
#X msg 261 281 3, f 2;
#X msg 236 260 2, f 2;
#X msg 287 305 4, f 2;
#X msg 312 326 5, f 2;
#X msg 341 350 6, f 2;
#X msg 366 381 7, f 2;
#X msg 394 407 8, f 2;
#X obj 537 318 sel 1;
#X obj 196 103 bng 19 250 50 0 empty empty empty 0 -10 0 12 #fcfcfc #000000 #000000;
#X obj 227 105 bng 19 250 50 0 empty empty empty 0 -10 0 12 #fcfcfc #000000 #000000;
#X obj 182 516 outlet;
#X obj 238 516 s artworkId;
#X connect 0 0 29 0;
#X connect 0 0 11 0;
#X connect 1 0 2 0;
#X connect 2 0 31 0;
#X connect 3 0 12 0;
#X connect 3 0 30 0;
#X connect 4 0 13 0;
#X connect 5 0 14 0;
#X connect 6 0 15 0;
#X connect 7 0 16 0;
#X connect 8 0 17 0;
#X connect 9 0 18 0;
#X connect 10 0 28 0;
#X connect 11 0 19 0;
#X connect 12 0 20 0;
#X connect 13 0 22 0;
#X connect 14 0 21 0;
#X connect 15 0 23 0;
#X connect 16 0 24 0;
#X connect 17 0 25 0;
#X connect 18 0 26 0;
#X connect 19 0 31 0;
#X connect 19 0 32 0;
#X connect 20 0 31 0;
#X connect 20 0 32 0;
#X connect 21 0 31 0;
#X connect 21 0 32 0;
#X connect 22 0 31 0;
#X connect 22 0 32 0;
#X connect 23 0 31 0;
#X connect 23 0 32 0;
#X connect 24 0 31 0;
#X connect 24 0 32 0;
#X connect 25 0 31 0;
#X connect 25 0 32 0;
#X connect 26 0 31 0;
#X connect 26 0 32 0;
#X connect 27 0 31 0;
#X connect 27 0 32 0;
#X connect 28 0 27 0;
#X restore 109 1569 pd artworkToggles;
#X msg 59 234 set unity artwork \$1 motion sinX, f 11;
#N canvas 1106 34 1099 730 init 0;
#X obj 168 16 loadbang;
#X msg 89 238 0, f 4;
#X obj 89 261 s artworkId;
#X obj 181 260 s setMotionMult;
#X msg 181 235 1;
#X connect 0 0 1 0;
#X connect 0 0 4 0;
#X connect 1 0 2 0;
#X connect 4 0 3 0;
#X restore 828 22 pd init;
#X text 1311 376 make an endpoint that fades in/out background of art;
#X text 1307 407 when artworks are toggled in \, they have an animation;
#X text 1305 427 where they appear bit by bit;
#X text 1314 480 pressing pads activates or deactivates certain motifs in the paintings;
#X obj 1395 1540 spigot;
#X obj 1434 1505 tgl 19 0 empty empty Sliders\ Lerp 0 -10 0 12 #fcfcfc #000000 #000000 0 1;
#X text 940 1121 idea: have a global handler registration/router for endpoints;
#X text 940 1175 lazy initialize monobehaviours;
#X text 961 1296 basically it could be like a broadcast message situation;
#X obj 1445 718 oscformat;
#X msg 1522 681 set unity artwork \$1 color rotate;
#X obj 1445 683 r slider1;
#X obj 1167 946 s udp-client;
#X obj 1409 880 spigot;
#X obj 1448 853 tgl 19 0 empty empty Normal\ Sliders 0 -10 0 12 #fcfcfc #000000 #000000 0 1;
#X obj 1447 811 loadbang;
#X obj 1522 658 r artworkId;
#X obj 1446 779 oscformat;
#X obj 1523 721 r artworkId;
#X msg 1523 746 set unity artwork \$1 color opacity;
#X obj 1446 749 r slider2;
#X msg 1442 620 set unity artwork \$1 color fadeIn;
#X obj 1153 590 r artworkId;
#X msg 1153 615 set unity artwork \$1 color fadeOut;
#X obj 1155 640 oscformat;
#X obj 1442 648 oscformat;
#X obj 1415 620 bng 19 250 50 0 empty empty empty 0 -10 0 12 #fcfcfc #000000 #000000;
#X obj 1126 642 bng 19 250 50 0 empty empty empty 0 -10 0 12 #fcfcfc #000000 #000000;
#X obj 57 872 r artworkId;
#X obj 95 846 s pad;
#X obj 864 119 r pad;
#X obj 597 1726 oscformat;
#X obj 597 1675 r artworkId;
#X obj 411 1667 oscformat;
#X obj 411 1618 r artworkId;
#X obj 864 144 sel 0 1;
#X msg 597 1699 set unity artwork \$1 color fadeIn;
#X msg 411 1643 set unity artwork \$1 color fadeOut;
#X obj 864 172 bng 19 250 50 0 empty empty empty 0 -10 0 12 #fcfcfc #000000 #000000;
#X obj 887 172 bng 19 250 50 0 empty empty empty 0 -10 0 12 #fcfcfc #000000 #000000;
#X obj 597 1754 s udp-client;
#X obj 399 1050 r pad;
#X obj 506 1150 oscformat;
#X obj 506 1172 s udp-client;
#X msg 559 1062 set unity artwork \$1 motion lookAtCamera;
#X obj 139 1636 loadbang;
#X msg 139 1658 set unity scene toggleArtwork;
#X obj 399 1073 sel 6 7;
#X obj 399 1147 oscformat;
#X obj 399 1169 s udp-client;
#X obj 1442 592 r artworkId;
#X obj 559 1034 loadbang;
#X text 970 1367 IDEA: Make custom post-processing effects;
#X obj 32 374 cnv 19 800 230 empty empty Camera\ Effects 20 12 0 12 #e3c6ff #404040 0;
#X obj 52 400 r slider3;
#X obj 52 543 oscformat;
#X obj 62 452 r artworkId;
#X obj 52 564 s udp-client;
#X msg 62 476 set unity camera kaliedoscope intensity, f 12;
#X obj 172 401 r slider4;
#X obj 172 544 oscformat;
#X obj 182 454 r artworkId;
#X msg 182 477 set unity camera echo intensity, f 9;
#X obj 172 565 s udp-client;
#X obj 996 1522 cnv 19 300 350 empty empty Audio 20 12 0 12 #c6feff #404040 0;
#X msg 1170 1601 \; pd dsp \$1 \;;
#X obj 1170 1577 tgl 19 0 empty empty empty 0 -10 0 12 #fcfcfc #000000 #000000 0 1;
#N canvas 3222 342 921 687 audioIn 0;
#X obj 91 7 adc~, f 13;
#X obj 91 80 env~;
#X obj 74 133 - 60;
#X obj 122 134 > 10;
#X obj 99 173 spigot;
#X obj 139 208 - 10;
#X floatatom 172 109 5 0 0 0 - - - 0;
#X obj 141 264 outlet;
#X obj 263 14 inlet;
#X obj 348 26 loadbang;
#X msg 314 59 10;
#X obj 91 43 +~;
#X connect 0 0 11 0;
#X connect 0 1 11 1;
#X connect 1 0 2 0;
#X connect 2 0 3 0;
#X connect 2 0 4 0;
#X connect 3 0 4 1;
#X connect 4 0 5 0;
#X connect 5 0 7 0;
#X connect 6 0 3 1;
#X connect 6 0 5 1;
#X connect 8 0 6 0;
#X connect 9 0 10 0;
#X connect 10 0 6 0;
#X connect 11 0 1 0;
#X restore 1024 1658 pd audioIn;
#X floatatom 1024 1626 5 0 0 1 thresh\ db - - 0;
#X floatatom 1024 1719 5 0 0 0 - - - 0;
#X obj 1137 1821 s audioTrig;
#X obj 1137 1757 t b;
#X obj 1024 1744 s audioEnv;
#X obj 1137 1782 spigot;
#X obj 1213 1663 r pad;
#X obj 1176 1730 tgl 19 0 empty empty empty 0 -10 0 12 #fcfcfc #000000 #000000 0 1;
#X obj 1213 1690 sel 4 5;
#X obj 311 12 cnv 19 500 70 empty empty empty 20 12 0 12 #ffe3c6 #404040 0;
#X floatatom 320 40 5 0 0 2 randRange1 - randRange1 0;
#X floatatom 52 139 5 0 0 1 knob1 knob1 - 0;
#X floatatom 398 40 5 0 0 2 motionMult setMotionMult motionMult 0;
#X floatatom 70 161 5 0 0 0 - motionMult - 0;
#X obj 172 287 oscformat;
#X obj 172 309 s udp-client;
#X obj 172 185 * 1;
#X obj 179 210 r artworkId;
#X floatatom 172 139 5 0 0 1 knob2 knob2 - 0;
#X floatatom 190 161 5 0 0 0 - motionMult - 0;
#X msg 179 233 set unity artwork \$1 motion cosY, f 11;
#X obj 292 287 oscformat;
#X obj 292 309 s udp-client;
#X obj 292 185 * 1;
#X obj 299 210 r artworkId;
#X floatatom 292 139 5 0 0 1 knob3 knob3 - 0;
#X floatatom 310 161 5 0 0 0 - motionMult - 0;
#X msg 299 233 set unity artwork \$1 motion sinZ, f 11;
#X obj 412 287 oscformat;
#X obj 412 309 s udp-client;
#X obj 412 185 * 1;
#X obj 419 210 r artworkId;
#X floatatom 412 139 5 0 0 1 knob4 knob4 - 0;
#X floatatom 430 161 5 0 0 0 - motionMult - 0;
#X msg 419 233 set unity artwork \$1 motion range, f 12;
#X obj 853 53 r audioTrig;
#X obj 853 80 random 100;
#X obj 941 53 r randRange1;
#X obj 532 287 oscformat;
#X obj 532 309 s udp-client;
#X obj 532 185 * 1;
#X obj 539 210 r artworkId;
#X floatatom 532 139 5 0 0 1 knob5 knob5 - 0;
#X floatatom 550 161 5 0 0 0 - motionMult - 0;
#X msg 539 233 set unity artwork \$1 motion speed, f 12;
#X obj 652 287 oscformat;
#X obj 652 309 s udp-client;
#X obj 659 210 r artworkId;
#X floatatom 652 139 5 0 0 1 mod mod - 0;
#X msg 659 233 set unity artwork \$1 motion lerpReset, f 16;
#X connect 3 0 13 1;
#X connect 5 0 13 2;
#X connect 6 0 13 1;
#X connect 7 0 13 0;
#X connect 9 0 10 0;
#X connect 11 0 9 0;
#X connect 14 0 29 0;
#X connect 16 0 17 0;
#X connect 18 0 16 0;
#X connect 21 0 16 0;
#X connect 21 1 60 0;
#X connect 24 0 25 0;
#X connect 25 0 73 0;
#X connect 26 0 35 0;
#X connect 28 0 23 0;
#X connect 29 0 9 0;
#X connect 35 0 27 0;
#X connect 36 0 35 1;
#X connect 40 0 44 0;
#X connect 41 0 40 0;
#X connect 42 0 40 0;
#X connect 44 0 43 0;
#X connect 45 0 44 1;
#X connect 46 0 45 0;
#X connect 47 0 41 0;
#X connect 48 0 44 0;
#X connect 49 0 50 0;
#X connect 50 0 48 0;
#X connect 51 0 48 0;
#X connect 52 0 56 0;
#X connect 53 0 54 0;
#X connect 54 0 55 0;
#X connect 55 0 43 0;
#X connect 56 0 43 0;
#X connect 57 0 56 0;
#X connect 58 0 55 0;
#X connect 59 0 18 0;
#X connect 61 0 66 0;
#X connect 62 0 71 0;
#X connect 63 0 67 0;
#X connect 64 0 71 0;
#X connect 65 0 68 0;
#X connect 66 0 69 0;
#X connect 66 1 70 0;
#X connect 67 0 62 0;
#X connect 68 0 64 0;
#X connect 72 0 78 0;
#X connect 73 0 74 0;
#X connect 75 0 79 0;
#X connect 76 0 77 0;
#X connect 77 0 23 0;
#X connect 78 0 79 0;
#X connect 78 1 73 0;
#X connect 79 0 80 0;
#X connect 81 0 52 0;
#X connect 82 0 75 0;
#X connect 85 0 86 0;
#X connect 86 0 88 0;
#X connect 87 0 89 0;
#X connect 89 0 86 0;
#X connect 90 0 91 0;
#X connect 91 0 94 0;
#X connect 92 0 93 0;
#X connect 93 0 91 0;
#X connect 97 0 96 0;
#X connect 98 0 100 0;
#X connect 98 0 102 0;
#X connect 99 0 98 0;
#X connect 100 0 103 0;
#X connect 102 0 104 0;
#X connect 104 0 101 0;
#X connect 105 0 107 0;
#X connect 106 0 104 1;
#X connect 107 0 106 0;
#X connect 107 1 101 0;
#X connect 110 0 11 0;
#X connect 112 0 11 1;
#X connect 113 0 114 0;
#X connect 115 0 113 0;
#X connect 116 0 119 0;
#X connect 117 0 115 0;
#X connect 118 0 115 1;
#X connect 119 0 113 0;
#X connect 120 0 121 0;
#X connect 122 0 120 0;
#X connect 123 0 126 0;
#X connect 124 0 122 0;
#X connect 125 0 122 1;
#X connect 126 0 120 0;
#X connect 127 0 128 0;
#X connect 129 0 127 0;
#X connect 130 0 133 0;
#X connect 131 0 129 0;
#X connect 132 0 129 1;
#X connect 133 0 127 0;
#X connect 134 0 135 0;
#X connect 136 0 135 1;
#X connect 137 0 138 0;
#X connect 139 0 137 0;
#X connect 140 0 143 0;
#X connect 141 0 139 0;
#X connect 142 0 139 1;
#X connect 143 0 137 0;
#X connect 144 0 145 0;
#X connect 146 0 148 0;
#X connect 147 0 144 0;
#X connect 148 0 144 0;
