#N canvas 1187 170 975 753 12;
#X obj 212 25 ctlin;
#X floatatom 87 124 5 0 0 0 - - - 0;
#X floatatom 128 124 3 0 0 0 - - - 0;
#X floatatom 155 124 5 0 0 0 - - - 0;
#X obj 18 210 pack f f;
#X obj 18 123 swap;
#X obj 609 276 route 33;
#X obj 186 655 s minilogue-filter;
#X obj 621 325 s minilogue-noise;
#X obj 281 476 s minilogue-resonance;
#X obj 296 451 s minilogue-eg-int;
#X obj 18 281 route 34 35 36 37 39 40 41 42 43 44 45;
#X obj 176 625 s minilogue-pitch-eg-int;
#X obj 167 593 s minilogue-cross-mod-depth;
#X obj 97 425 s minilogue-vco1-pitch;
#X obj 111 455 s minilogue-vco2-pitch;
#X obj 123 481 s minilogue-vco1-shape;
#X obj 134 511 s minilogue-vco2-shape;
#X obj 147 535 s minilogue-vco1-gain;
#X obj 156 565 s minilogue-vco2-gain;
#X obj 401 278 route 16 17 18 19 20 21 22;
#X obj 395 354 s minilogue-amp-attack;
#X obj 410 379 s minilogue-amp-decay;
#X obj 432 404 s minilogue-amp-sustain;
#X obj 447 429 s minilogue-amp-release;
#X obj 468 463 s minilogue-env-attack;
#X obj 485 486 s minilogue-env-decay;
#X obj 507 511 s minilogue-env-sustain;
#X obj 522 535 s minilogue-env-release;
#X floatatom 40 466 5 0 0 0 - - - 0;
#X floatatom 257 88 5 0 0 0 - - - 0;
#X obj 71 166 ../utils/normalize-midi;
#X floatatom 298 89 5 0 0 0 - - - 0;
#X obj 763 272 route 80 81;
#X obj 760 368 s minilogue-sync;
#X obj 800 325 s minilogue-ring;
#X connect 0 0 1 0;
#X connect 0 0 5 0;
#X connect 0 0 30 0;
#X connect 0 1 2 0;
#X connect 0 1 5 1;
#X connect 0 1 32 0;
#X connect 0 2 3 0;
#X connect 4 0 6 0;
#X connect 4 0 11 0;
#X connect 4 0 20 0;
#X connect 4 0 33 0;
#X connect 5 0 4 0;
#X connect 5 1 31 0;
#X connect 6 0 8 0;
#X connect 11 0 14 0;
#X connect 11 0 29 0;
#X connect 11 1 15 0;
#X connect 11 2 16 0;
#X connect 11 3 17 0;
#X connect 11 4 18 0;
#X connect 11 5 19 0;
#X connect 11 6 13 0;
#X connect 11 7 12 0;
#X connect 11 8 7 0;
#X connect 11 9 9 0;
#X connect 11 10 10 0;
#X connect 20 0 21 0;
#X connect 20 1 22 0;
#X connect 20 2 23 0;
#X connect 20 3 24 0;
#X connect 20 4 25 0;
#X connect 20 5 26 0;
#X connect 20 6 27 0;
#X connect 20 7 28 0;
#X connect 31 0 4 1;
#X connect 33 0 34 0;
#X connect 33 1 35 0;
