#N canvas -1023 -563 975 753 12;
#X obj 212 25 ctlin;
#X floatatom 87 124 5 0 0 0 - - - 0;
#X floatatom 128 124 3 0 0 0 - - - 0;
#X floatatom 155 124 5 0 0 0 - - - 0;
#X obj 18 210 pack f f;
#X obj 18 123 swap;
#X obj 609 276 route 33;
#X obj 18 281 route 34 35 36 37 39 40 41 42 43 44 45;
#X floatatom 40 466 5 0 0 0 - - - 0;
#X floatatom 257 88 5 0 0 0 - - - 0;
#X obj 71 166 ../utils/normalize-midi;
#X floatatom 298 89 5 0 0 0 - - - 0;
#X obj 763 272 route 80 81;
#X obj 97 425 s vco1-pitch;
#X obj 111 455 s vco2-pitch;
#X obj 123 481 s vco1-shape;
#X obj 134 511 s vco2-shape;
#X obj 147 535 s vco1-gain;
#X obj 156 565 s vco2-gain;
#X obj 167 593 s cross-mod-depth;
#X obj 186 655 s filter;
#X obj 176 625 s pitch-eg-int;
#X obj 307 454 s eg-int;
#X obj 292 479 s resonance;
#X obj 395 354 s amp-attack;
#X obj 410 379 s amp-decay;
#X obj 432 404 s amp-sustain;
#X obj 447 429 s amp-release;
#X obj 468 463 s env-attack;
#X obj 485 486 s env-decay;
#X obj 507 511 s env-sustain;
#X obj 522 535 s env-release;
#X obj 621 325 s noise;
#X obj 800 325 s switch-ring;
#X obj 760 368 s switch-sync;
#X obj 401 278 route 16 17 18 19 20 21 22 23;
#X obj 536 43 cnv 19 200 100 empty empty Note\ In 20 12 0 12 #e0e0e0 #404040 0;
#N canvas -930 -242 792 776 note 0;
#X obj 116 111 notein;
#X floatatom 325 148 5 0 0 0 - - - 0;
#X floatatom 365 147 5 0 0 0 - - - 0;
#X obj 303 298 > 0;
#X obj 261 326 spigot;
#X obj 210 299 pack f f;
#X obj 269 235 / 127;
#X obj 399 630 outlet;
#X text 6 203 separate out pads;
#X obj 239 403 spigot;
#X obj 83 317 outlet;
#X obj 162 339 == 0;
#X obj 153 304 < 43;
#X obj 119 404 spigot;
#X obj 103 508 print pad;
#X msg 428 429 0;
#X msg 443 451 1;
#X msg 455 478 2;
#X msg 470 500 3;
#X msg 487 522 4;
#X msg 502 544 5;
#X msg 514 571 6;
#X msg 529 593 7;
#X obj 429 397 route 40 41 42 43 36 37 38 39;
#X text 323 324 send only noteons to pads;
#X connect 0 0 1 0;
#X connect 0 0 10 0;
#X connect 0 1 2 0;
#X connect 0 1 6 0;
#X connect 0 1 3 0;
#X connect 3 0 4 1;
#X connect 4 0 13 0;
#X connect 5 0 4 0;
#X connect 5 0 9 0;
#X connect 6 0 5 1;
#X connect 11 0 9 1;
#X connect 12 0 11 0;
#X connect 12 0 13 1;
#X connect 13 0 14 0;
#X connect 13 0 23 0;
#X connect 15 0 7 0;
#X connect 16 0 7 0;
#X connect 17 0 7 0;
#X connect 18 0 7 0;
#X connect 19 0 7 0;
#X connect 20 0 7 0;
#X connect 21 0 7 0;
#X connect 22 0 7 0;
#X connect 23 0 15 0;
#X connect 23 1 16 0;
#X connect 23 2 17 0;
#X connect 23 3 18 0;
#X connect 23 4 19 0;
#X connect 23 5 20 0;
#X connect 23 6 21 0;
#X connect 23 7 22 0;
#X restore 629 60 pd note;
#X obj 675 84 s pad;
#X obj 629 113 s keys;
#X obj 687 114 print NOTE;
#X obj 894 261 route 29 30 31;
#X obj 1357 819;
#X obj 950 379 s del-hi-pass;
#X obj 961 355 s del-time;
#X obj 972 328 s del-feedback;
#X connect 0 0 1 0;
#X connect 0 0 5 0;
#X connect 0 0 9 0;
#X connect 0 1 2 0;
#X connect 0 1 5 1;
#X connect 0 1 11 0;
#X connect 0 2 3 0;
#X connect 4 0 6 0;
#X connect 4 0 7 0;
#X connect 4 0 12 0;
#X connect 4 0 35 0;
#X connect 4 0 41 0;
#X connect 5 0 4 0;
#X connect 5 1 10 0;
#X connect 6 0 32 0;
#X connect 7 0 8 0;
#X connect 7 0 13 0;
#X connect 7 1 14 0;
#X connect 7 2 15 0;
#X connect 7 3 16 0;
#X connect 7 4 17 0;
#X connect 7 5 18 0;
#X connect 7 6 19 0;
#X connect 7 7 21 0;
#X connect 7 8 20 0;
#X connect 7 9 23 0;
#X connect 7 10 22 0;
#X connect 10 0 4 1;
#X connect 12 0 34 0;
#X connect 12 1 33 0;
#X connect 35 0 24 0;
#X connect 35 1 25 0;
#X connect 35 2 26 0;
#X connect 35 3 27 0;
#X connect 35 4 28 0;
#X connect 35 5 29 0;
#X connect 35 6 30 0;
#X connect 35 7 31 0;
#X connect 37 0 39 0;
#X connect 37 0 40 0;
#X connect 37 1 38 0;
#X connect 41 0 43 0;
#X connect 41 1 44 0;
#X connect 41 2 45 0;
