#N canvas 353 38 689 916 12;
#X obj 119 26 ctlin;
#X floatatom 188 85 5 0 0 0 - - - 0;
#X floatatom 237 86 5 0 0 0 - - - 0;
#X obj 119 178 pack f f;
#X obj 119 91 swap;
#X obj 172 134 ../utils/normalize-midi;
#N canvas 1106 34 450 300 sliders 0;
#X obj 88 115 route 33 34 35 36 37 38 39 40 41, f 37;
#X obj 75 181 s slider1;
#X obj 92 203 s slider2;
#X obj 122 226 s slider3;
#X obj 141 249 s slider4;
#X obj 171 278 s slider5;
#X obj 190 301 s slider6;
#X obj 211 329 s slider7;
#X obj 230 352 s slider8;
#X obj 254 371 s slider9;
#X obj 94 42 inlet;
#X connect 0 0 1 0;
#X connect 0 1 2 0;
#X connect 0 2 3 0;
#X connect 0 3 4 0;
#X connect 0 4 5 0;
#X connect 0 5 6 0;
#X connect 0 6 7 0;
#X connect 0 7 8 0;
#X connect 0 8 9 0;
#X connect 10 0 0 0;
#X restore 65 365 pd sliders;
#N canvas 1132 60 450 300 buttons 0;
#X obj 227 237 route 49 50 51 52 53 54 55 56 41;
#X obj 213 264 s button1;
#X obj 230 286 s button2;
#X obj 260 309 s button3;
#X obj 279 332 s button4;
#X obj 309 358 s button5;
#X obj 328 384 s button6;
#X obj 349 412 s button7;
#X obj 368 435 s button8;
#X obj 393 454 s button9;
#X obj 134 144 inlet;
#X connect 0 0 1 0;
#X connect 0 1 2 0;
#X connect 0 2 3 0;
#X connect 0 3 4 0;
#X connect 0 4 5 0;
#X connect 0 5 6 0;
#X connect 0 6 7 0;
#X connect 0 7 8 0;
#X connect 0 8 9 0;
#X connect 10 0 0 0;
#X restore 91 335 pd buttons;
#N canvas 1147 136 450 300 knobs 0;
#X obj 94 40 route 44 45 46 47 62 63 75 76;
#X obj 74 91 s knob1;
#X obj 87 114 s knob2;
#X obj 99 135 s knob3;
#X obj 115 158 s knob4;
#X obj 133 186 s knob5;
#X obj 146 209 s knob6;
#X obj 158 230 s knob7;
#X obj 174 253 s knob8;
#X obj 59 6 inlet;
#X connect 0 0 1 0;
#X connect 0 1 2 0;
#X connect 0 2 3 0;
#X connect 0 3 4 0;
#X connect 0 4 5 0;
#X connect 0 5 6 0;
#X connect 0 6 7 0;
#X connect 0 7 8 0;
#X connect 9 0 0 0;
#X restore 110 310 pd knobs;
#X obj 411 17 loadbang;
#X msg 406 79 0;
#X msg 342 78 1;
#X obj 246 226 route 1;
#X obj 246 254 s mod;
#X obj 218 474 cnv 19 200 100 empty empty Note\ In 20 12 0 12 #e0e0e0 #404040 0;
#N canvas 1716 174 792 776 note 0;
#X obj 116 111 notein;
#X floatatom 325 148 5 0 0 0 - - - 0;
#X floatatom 365 147 5 0 0 0 - - - 0;
#X obj 303 298 > 0;
#X obj 261 326 spigot;
#X obj 210 299 pack f f;
#X obj 269 235 / 127;
#X obj 399 630 outlet;
#X text 6 203 separate out pads;
#X obj 286 432 spigot;
#X obj 286 475 outlet;
#X obj 162 339 == 0;
#X obj 153 304 < 43;
#X obj 119 404 spigot;
#X obj 103 508 print pad;
#X msg 428 429 0;
#X msg 443 451 1;
#X msg 455 478 2;
#X msg 470 500 3;
#X msg 487 522 4;
#X msg 502 544 5;
#X msg 514 571 6;
#X msg 529 593 7;
#X obj 429 397 route 40 41 42 43 36 37 38 39;
#X text 323 324 send only noteons to pads;
#X connect 0 0 1 0;
#X connect 0 0 5 0;
#X connect 0 0 12 0;
#X connect 0 1 2 0;
#X connect 0 1 6 0;
#X connect 0 1 3 0;
#X connect 3 0 4 1;
#X connect 4 0 13 0;
#X connect 5 0 4 0;
#X connect 5 0 9 0;
#X connect 6 0 5 1;
#X connect 9 0 10 0;
#X connect 11 0 9 1;
#X connect 12 0 11 0;
#X connect 12 0 13 1;
#X connect 13 0 14 0;
#X connect 13 0 23 0;
#X connect 15 0 7 0;
#X connect 16 0 7 0;
#X connect 17 0 7 0;
#X connect 18 0 7 0;
#X connect 19 0 7 0;
#X connect 20 0 7 0;
#X connect 21 0 7 0;
#X connect 22 0 7 0;
#X connect 23 0 15 0;
#X connect 23 1 16 0;
#X connect 23 2 17 0;
#X connect 23 3 18 0;
#X connect 23 4 19 0;
#X connect 23 5 20 0;
#X connect 23 6 21 0;
#X connect 23 7 22 0;
#X restore 311 491 pd note;
#X obj 357 515 s pad;
#X obj 311 544 s keys;
#X obj 144 226 route 64;
#X obj 144 255 s pedal;
#X obj 369 545 print NOTE;
#X floatatom 265 532 5 0 0 0 - - - 0;
#X connect 0 0 1 0;
#X connect 0 0 4 0;
#X connect 0 1 2 0;
#X connect 0 1 4 1;
#X connect 3 0 6 0;
#X connect 3 0 7 0;
#X connect 3 0 8 0;
#X connect 3 0 12 0;
#X connect 3 0 18 0;
#X connect 4 0 3 0;
#X connect 4 1 5 0;
#X connect 5 0 3 1;
#X connect 9 0 10 0;
#X connect 9 0 11 0;
#X connect 10 0 5 2;
#X connect 11 0 5 1;
#X connect 12 0 13 0;
#X connect 15 0 17 0;
#X connect 15 0 20 0;
#X connect 15 0 21 0;
#X connect 15 1 16 0;
#X connect 18 0 19 0;
