#N canvas 1187 234 763 749 12;
#X obj 318 434 netsend -u -b;
#X obj 178 14 cnv 19 126 76 empty empty empty 20 12 0 12 #e0e0e0 #404040 0;
#X obj 188 59 inlet;
#X obj 328 14 cnv 19 126 76 empty empty empty 20 12 0 12 #e0e0e0 #404040 0;
#X obj 338 59 inlet;
#X text 337 25 destination port;
#X obj 388 99 loadbang;
#X msg 238 125 localhost;
#X obj 238 99 loadbang;
#X msg 388 123 8000;
#X obj 188 193 symbol;
#X listbox 318 269 20 0 0 0 - - - 0;
#X obj 338 154 t b f;
#X obj 318 241 pack s f, f 9;
#X msg 318 343 connect \$1 \$2;
#X msg 482 343 disconnect;
#X obj 398 525 print OSC Connection Status;
#X obj 318 296 t l b b b, f 28;
#X msg 572 343 0;
#X msg 437 343 1;
#X obj 398 495 spigot;
#X text 187 26 destination ip;
#X obj 29 14 cnv 19 126 76 empty empty empty 20 12 0 12 #e0e0e0 #404040 0;
#X obj 39 59 inlet;
#X text 38 25 outgoing message;
#X obj 39 101 s \$0-udp-send;
#X obj 208 343 r \$0-udp-send;
#X connect 0 0 20 0;
#X connect 2 0 10 0;
#X connect 4 0 12 0;
#X connect 6 0 9 0;
#X connect 7 0 10 0;
#X connect 8 0 7 0;
#X connect 9 0 13 1;
#X connect 10 0 13 0;
#X connect 11 0 17 0;
#X connect 12 0 10 0;
#X connect 12 1 13 1;
#X connect 13 0 11 0;
#X connect 14 0 0 0;
#X connect 15 0 0 0;
#X connect 17 0 14 0;
#X connect 17 1 19 0;
#X connect 17 2 15 0;
#X connect 17 3 18 0;
#X connect 18 0 20 1;
#X connect 19 0 20 1;
#X connect 20 0 16 0;
#X connect 23 0 25 0;
#X connect 26 0 0 0;
