#N canvas 0 31 698 610 12;
#X obj 558 197 metro;
#X obj 743 66 loadbang;
#X msg 743 92 300;
#X obj 150 144 osc~;
#X obj 150 289 snapshot~;
#X obj 340 85 inlet;
#X obj 228 60 cnv 16 80 64 empty empty empty 20 12 0 10 #e0e0e0 #404040 0;
#X obj 240 88 inlet;
#X text 237 67 phase;
#X obj 138 60 cnv 16 80 64 empty empty empty 20 12 0 10 #e0e0e0 #404040 0;
#X obj 150 88 inlet;
#X text 147 67 freq;
#X obj 636 60 cnv 16 80 64 empty empty empty 20 12 0 10 #e0e0e0 #404040 0;
#X obj 648 88 inlet;
#X text 645 67 update freq;
#X obj 546 60 cnv 16 80 64 empty empty empty 20 12 0 10 #e0e0e0 #404040 0;
#X obj 558 88 inlet;
#X text 555 67 toggle;
#X obj 558 170 tgl 16 0 empty empty empty 0 -8 0 10 #fcfcfc #000000 #000000 0 1;
#X obj 743 113 t b f;
#X text 338 65 bounds lo;
#X obj 420 85 inlet;
#X text 418 65 bounds hi;
#X obj 150 314 + 1;
#X obj 150 339 / 2;
#X obj 150 433 outlet;
#X obj 79 70 loadbang;
#X msg 79 96 100;
#X msg 50 125 \; pd dsp 1 \;;
#X obj 201 385 expr ($f1-$f2)/($f3-$f2);
#X obj 416 272 loadbang;
#X msg 380 304 0;
#X msg 416 303 1;
#X connect 0 0 4 0;
#X connect 1 0 2 0;
#X connect 2 0 19 0;
#X connect 3 0 4 0;
#X connect 4 0 23 0;
#X connect 5 0 29 1;
#X connect 7 0 3 1;
#X connect 10 0 3 0;
#X connect 13 0 0 1;
#X connect 16 0 18 0;
#X connect 18 0 0 0;
#X connect 19 0 18 0;
#X connect 19 1 0 1;
#X connect 21 0 29 2;
#X connect 23 0 24 0;
#X connect 24 0 25 0;
#X connect 26 0 27 0;
#X connect 26 0 28 0;
#X connect 27 0 3 0;
#X connect 30 0 31 0;
#X connect 30 0 32 0;
#X connect 31 0 29 1;
#X connect 32 0 29 2;
