#N canvas 327 322 492 296 12;
#X obj 88 245 print split;
#X obj 88 127 list split 1;
#X obj 134 177 list;
#X obj 88 221 t s b;
#X obj 78 14 cnv 19 126 76 empty empty empty 20 12 0 12 #e0e0e0 #404040 0;
#X obj 88 59 inlet;
#X text 87 25 input list;
#X connect 1 0 3 0;
#X connect 1 1 2 1;
#X connect 2 0 1 0;
#X connect 3 0 0 0;
#X connect 3 1 2 0;
#X connect 5 0 1 0;
