#N canvas 2259 343 450 300 10;
#X obj 68 54 inlet;
#X obj 68 100 / 127;
#X obj 155 61 inlet;
#X obj 91 149 *;
#X obj 248 71 inlet;
#X obj 91 170 +;
#X obj 112 213 outlet;
#X floatatom 31 150 5 0 0 0 - - - 0;
#X floatatom 59 211 5 0 0 0 - - - 0;
#X floatatom 31 182 5 0 0 0 - - - 0;
#X connect 0 0 1 0;
#X connect 1 0 3 0;
#X connect 1 0 7 0;
#X connect 2 0 3 1;
#X connect 2 0 5 1;
#X connect 3 0 5 0;
#X connect 3 0 9 0;
#X connect 4 0 5 1;
#X connect 5 0 6 0;
#X connect 5 0 8 0;
