#N canvas 2304 504 450 314 12;
#X obj 86 53 inlet;
#X obj 86 84 / 127;
#X obj 86 194 outlet;
#X obj 233 80 inlet;
#X obj 225 167;
#X obj 96 128 * 1;
#X obj 96 152 - 0;
#X obj 158 75 inlet;
#X obj 352 41 loadbang;
#X msg 406 79 0;
#X msg 342 78 1;
#X connect 0 0 1 0;
#X connect 1 0 5 0;
#X connect 3 0 6 1;
#X connect 5 0 6 0;
#X connect 6 0 2 0;
#X connect 7 0 5 1;
#X connect 8 0 9 0;
#X connect 8 0 10 0;
#X connect 9 0 6 1;
#X connect 10 0 5 1;
