#N canvas 0 23 1280 755 10;
#X floatatom 370 144 5 0 0 0 - - - 0;
#X msg 202 415 disconnect;
#X obj 206 598 print;
#X floatatom 131 595 5 0 0 0 - - - 0;
#X msg 182 354 connect \$1 \$2;
#X msg 102 57 192.168.1.205;
#X msg 201 57 8000;
#X msg 242 57 57120;
#X obj 123 131 symbol;
#X obj 123 177 pack s f;
#X obj 131 568 netsend -u -b;
#X msg 365 397 format b;
#X msg 364 378 format;
#X msg 365 418 format i;
#X text 431 420 int32;
#X text 432 397 blob;
#X text 433 375 no/default dtype;
#X text 432 261 set address;
#X obj 315 452 oscformat -f f;
#X obj 368 260 loadbang;
#X msg 368 313 set unity foo;
#X obj 128 100 t b b;
#X msg 10 353 connect 192.168.1.205 8000;
#X msg 368 280 set unity;
#X msg 293 51 9000;
#X floatatom 719 210 9 0 0 0 - - - 0;
#X floatatom 703 94 5 0 0 0 - - - 0;
#X obj 719 148 ../utils/data-lfo;
#X floatatom 822 97 5 0 0 0 - - - 0;
#X obj 798 96 bng 16 250 50 0 empty empty empty 0 -8 0 10 #fcfcfc #000000 #000000;
#X obj 719 175 * 100;
#X floatatom 768 188 5 0 0 0 - - - 0;
#X obj 292 3 loadbang;
#X msg 34 56 localhost;
#X obj 613 262 ctlin, f 25;
#X obj 613 432 pack f f;
#X obj 613 289 swap;
#X floatatom 613 492 5 0 0 0 - - - 0;
#X floatatom 650 492 5 0 0 0 - - - 0;
#X obj 658 315 / 128;
#X floatatom 687 491 5 0 0 0 - - - 0;
#X obj 592 579 oscformat -f f unity controller moveY;
#X obj 616 604 oscformat -f f unity controller moveZ;
#X msg 492 510 set;
#X obj 574 550 oscformat -f f unity controller moveX;
#X obj 658 336 * 2;
#X obj 658 359 - 1;
#X obj 658 387 * 1;
#X floatatom 695 367 5 0 0 0 - - - 0;
#X text 737 366 range;
#X obj 595 668 s netOut;
#X obj 236 520 r netOut;
#X floatatom 804 309 5 0 0 0 - - - 0;
#X floatatom 768 308 5 0 0 0 - - - 0;
#X obj 613 457 route 44 45 46 41;
#X obj 764 479 > 0;
#X obj 764 499 select 1;
#X obj 631 631 oscformat -f i unity controller reset;
#X connect 0 0 18 0;
#X connect 1 0 10 0;
#X connect 4 0 10 0;
#X connect 5 0 8 0;
#X connect 6 0 9 1;
#X connect 6 0 21 0;
#X connect 7 0 9 1;
#X connect 7 0 21 0;
#X connect 8 0 9 0;
#X connect 9 0 4 0;
#X connect 10 0 3 0;
#X connect 10 1 2 0;
#X connect 11 0 18 0;
#X connect 12 0 18 0;
#X connect 13 0 18 0;
#X connect 18 0 10 0;
#X connect 19 0 23 0;
#X connect 20 0 18 0;
#X connect 22 0 10 0;
#X connect 23 0 18 0;
#X connect 24 0 21 0;
#X connect 24 0 9 1;
#X connect 26 0 27 0;
#X connect 27 0 30 0;
#X connect 28 0 27 5;
#X connect 29 0 27 4;
#X connect 30 0 25 0;
#X connect 31 0 30 1;
#X connect 32 0 6 0;
#X connect 33 0 8 0;
#X connect 34 0 36 0;
#X connect 34 0 53 0;
#X connect 34 1 36 1;
#X connect 34 1 52 0;
#X connect 35 0 54 0;
#X connect 36 0 35 0;
#X connect 36 1 39 0;
#X connect 37 0 44 0;
#X connect 38 0 41 0;
#X connect 39 0 45 0;
#X connect 40 0 42 0;
#X connect 41 0 50 0;
#X connect 42 0 50 0;
#X connect 44 0 50 0;
#X connect 45 0 46 0;
#X connect 46 0 47 0;
#X connect 47 0 35 1;
#X connect 48 0 47 1;
#X connect 51 0 10 0;
#X connect 54 0 37 0;
#X connect 54 1 38 0;
#X connect 54 2 40 0;
#X connect 54 3 55 0;
#X connect 55 0 56 0;
#X connect 56 0 57 0;
#X connect 57 0 50 0;
