#N canvas 1149 86 993 907 12;
#X msg 469 267 format b;
#X msg 469 245 format;
#X msg 469 288 format i;
#X obj 468 180 loadbang;
#X msg 468 210 set unity;
#X obj 208 14 cnv 19 126 76 empty empty empty 20 12 0 12 #e0e0e0 #404040 0;
#X obj 218 59 inlet;
#X obj 58 423 oscformat;
#X obj 458 14 cnv 19 126 76 empty empty empty 20 12 0 12 #e0e0e0 #404040 0;
#X obj 468 59 inlet;
#X text 467 25 format type: f \, i \, b \, s;
#X msg 468 132 format \$1;
#X obj 58 465 outlet;
#X text 217 25 endpoint address prefix with set;
#X obj 48 14 cnv 19 126 76 empty empty empty 20 12 0 12 #e0e0e0 #404040 0;
#X obj 58 59 inlet;
#X text 57 25 input messages;
#X connect 0 0 7 0;
#X connect 1 0 7 0;
#X connect 2 0 7 0;
#X connect 3 0 4 0;
#X connect 4 0 7 0;
#X connect 6 0 7 0;
#X connect 7 0 12 0;
#X connect 9 0 11 0;
#X connect 11 0 7 0;
#X connect 15 0 7 0;
